<?xml version="1.0" encoding="UTF-8" standalone="no"?>
<!-- Created with Inkscape (http://www.inkscape.org/) -->

<svg
   width="90.88353mm"
   height="58.188984mm"
   viewBox="0 0 90.88353 58.188984"
   version="1.1"
   id="svg5"
   inkscape:version="1.1.1 (3bf5ae0d25, 2021-09-20)"
   sodipodi:docname="logo.svg"
   xmlns:inkscape="http://www.inkscape.org/namespaces/inkscape"
   xmlns:sodipodi="http://sodipodi.sourceforge.net/DTD/sodipodi-0.dtd"
   xmlns="http://www.w3.org/2000/svg"
   xmlns:svg="http://www.w3.org/2000/svg">
  <sodipodi:namedview
     id="namedview7"
     pagecolor="#ffffff"
     bordercolor="#666666"
     borderopacity="1.0"
     inkscape:pageshadow="2"
     inkscape:pageopacity="0.0"
     inkscape:pagecheckerboard="0"
     inkscape:document-units="mm"
     showgrid="false"
     inkscape:zoom="0.70710678"
     inkscape:cx="504.87424"
     inkscape:cy="304.76302"
     inkscape:window-width="1920"
     inkscape:window-height="1017"
     inkscape:window-x="1912"
     inkscape:window-y="-8"
     inkscape:window-maximized="1"
     inkscape:current-layer="layer1"
     fit-margin-top="2"
     fit-margin-left="2"
     fit-margin-bottom="2"
     fit-margin-right="2" />
  <defs
     id="defs2" />
  <g
     inkscape:label="Livello 1"
     inkscape:groupmode="layer"
     id="layer1"
     transform="translate(-4.5582337,4.0944914)">
    <text
       xml:space="preserve"
       style="font-style:normal;font-weight:normal;font-size:10.5833px;line-height:1.25;font-family:sans-serif;fill:#000000;fill-opacity:1;stroke:none;stroke-width:0.264583"
       x="110.07692"
       y="151.96153"
       id="text4482"><tspan
         sodipodi:role="line"
         id="tspan4480"
         style="stroke-width:0.264583"
         x="110.07692"
         y="151.96153" /></text>
    <g
       id="g16410"
       transform="translate(-1.6521633,1.8625526)">
      <g
         id="g919"
         transform="matrix(-0.02842342,-0.00761603,0.00761603,-0.02842342,41.190004,35.61928)"
         style="fill:#bbbbbb;fill-opacity:1;stroke:none;stroke-width:12.4024;stroke-miterlimit:4;stroke-dasharray:none">
        <path
           d="m 808,0.7 c -27.5,4.2 -42.3,23.8 -40.7,53.8 0.8,13.2 4.5,27.3 10.6,40.1 2.7,5.7 4.8,10.4 4.6,10.4 -0.1,0 -3.4,-1.3 -7.1,-2.9 -65.8,-28 -138,-26.2 -202,5 -13.9,6.7 -34.4,19.6 -44.7,28.1 -50.8,41.6 -83.7,97.4 -97.1,164.8 -4.7,23.6 -6.1,62.9 -3.1,88.3 9.9,84.5 57.7,154.6 123.3,180.7 41.9,16.7 85.9,15.5 126.1,-3.6 42,-19.8 74.8,-58.4 90.1,-105.9 10.8,-33.4 12.1,-73.8 3.4,-107.2 -7.4,-28.7 -21.7,-53.9 -41,-72.4 -15.2,-14.5 -31.2,-23.6 -50.9,-29.1 -11,-3.1 -34.3,-3.6 -46.6,-1 -20,4.1 -38,13.8 -52.8,28.2 -11.4,11.2 -18,20.1 -24.6,33.5 -15.5,31.3 -16.1,64.9 -1.5,95.1 5.8,12 29.9,44.8 31.7,43 0.9,-0.8 -4,-9.2 -14,-24.1 -14.9,-22.2 -19.6,-33.8 -21.6,-53.3 -4.2,-40.4 20.9,-83.6 59.2,-101.8 35.8,-16.9 78.2,-9.6 108.2,18.8 5.1,4.8 11.8,12 14.8,16 32.1,42 38.8,106.1 16.7,161.3 -8,20.1 -19.4,36.9 -36.5,54 -22.1,22.2 -44,34.2 -73.8,40.7 -14.8,3.2 -41.7,3.2 -56.7,-0.1 -19.4,-4.2 -39.7,-13.2 -56.5,-25 C 514.6,528.5 496.3,510.5 487.6,499 458.4,460.2 443,411.5 443,358.1 c 0.1,-108.4 65.8,-204.9 160.7,-236 25.4,-8.4 42.3,-11.1 68.8,-11.1 32.3,0 58.8,5.4 88.2,18.1 43,18.4 82.6,52.2 112.5,95.9 42.7,62.3 64.4,148.1 58.8,232.2 -6.4,95.7 -44.1,182.2 -107.9,248.1 -14.6,15 -23.7,22.6 -41.1,34.2 -61.1,40.6 -159,78.1 -255.6,97.9 -57.4,11.8 -108.8,17.4 -162.9,17.9 -28.1,0.2 -26.4,0.6 -39.5,-8.3 -28.3,-19.2 -43.6,-55.7 -37.6,-89.8 8.1,-46.2 47,-70.8 83.1,-52.5 12.2,6.2 23.8,22.4 27,37.8 5,23.8 -4.8,47.6 -23.3,56.7 -3.9,1.9 -6.3,2.3 -14.2,2.3 -8.3,0 -10.1,-0.4 -14.5,-2.7 -6.3,-3.3 -13.9,-11.3 -16.6,-17.5 -1.1,-2.5 -2.5,-7.8 -3.1,-11.7 -1.4,-9.1 0.6,-17.7 5.9,-25.4 13.8,-20.1 42.3,-11.1 42.3,13.4 0,6 -1.2,9.5 -6.4,17.9 l -1.8,3 2.7,-3 c 7.2,-8 9,-20.1 4.6,-30 -2.9,-6.5 -6.4,-10.2 -12.6,-13.1 -19.9,-9.4 -40,9.4 -38.2,35.6 0.9,13.7 7.1,24.8 17.7,31.8 14.4,9.6 32.9,7.9 45.9,-4.3 6.6,-6.2 10.4,-12.2 13.7,-22 2.3,-6.7 2.7,-9.7 2.8,-19 0.1,-12.4 -2.1,-21.2 -7.7,-32 -3.9,-7.4 -16.4,-20.1 -23.4,-23.8 -6,-3.2 -18.8,-6.7 -24.7,-6.7 -3.9,-0.1 -4,-0.1 -2.1,-1.6 8,-5.9 12.5,-12.8 12.5,-19 0,-2.7 -0.8,-4.4 -3.3,-6.9 -5.5,-5.5 -15.6,-7 -14.4,-2.1 0.3,1.2 1,3.9 1.6,6 1.2,5 -0.2,13.3 -3.4,19.7 -2.1,4.1 -2.9,4.8 -7.1,5.8 -32.8,8.3 -55.3,47.2 -51.3,88.7 2.4,25.7 13.3,47.6 32.5,65.2 l 7.9,7.3 -8.5,-0.7 c -70.6,-5 -129.4,-17.6 -186.5,-40.1 -7.7,-3 -24.3,-10.6 -37,-16.8 -30.3,-14.9 -50.9,-27.4 -76.3,-46.2 -13.3,-9.8 -15.2,-8.7 -2.4,1.5 40.5,32.4 95,61.5 149.8,80.2 56,19.1 110.4,29.7 180.4,35.2 21.6,1.6 96.1,1.6 118,0 44.2,-3.4 92.3,-9.7 121.3,-15.8 l 7.1,-1.5 5.4,5.3 c 19.8,19.5 29.6,50.5 26.4,84 -3,32 -15.8,59.4 -38.2,81.8 -48.5,48.7 -119.6,48.3 -148.1,-0.7 -12,-20.8 -12.3,-49.5 -0.7,-72.8 16.1,-32.1 51.5,-51.9 80.6,-45 17.5,4.1 30.2,16 35.3,32.7 2.9,9.6 2.3,23.3 -1.5,33.2 -14,36.7 -60.4,48.8 -77.1,20.1 -7.8,-13.4 -4.3,-31 8.6,-42.9 6.1,-5.7 10.2,-7.4 23.9,-10.4 4,-0.9 4.2,-1 1.3,-1.1 -4.8,-0.2 -13.2,1.8 -18.9,4.5 -6.8,3.2 -14.7,11.8 -18.7,20.1 -2.9,6.1 -3.2,7.7 -3.2,15.8 0,7.6 0.4,9.9 2.7,14.6 4.9,10.7 14.4,17.7 27.1,20 22.8,4.2 50.7,-14.7 59.7,-40.5 4,-11.1 4.4,-25.7 1.1,-36.3 -2,-6.6 -7.8,-16 -13.2,-21.3 -17.3,-17 -45.5,-19.8 -71.4,-7.1 -27.6,13.6 -47.5,41.6 -51.6,72.6 -5.1,39.2 19,76.5 56.6,87.3 18,5.2 33.3,5.4 53.3,0.6 36.5,-8.8 72.1,-38.4 90.7,-75.4 10.1,-20.2 14.7,-39.7 14.8,-63 0,-31.6 -7.3,-54.8 -23.6,-74.3 -2.2,-2.6 -3.8,-4.9 -3.6,-5.1 0.2,-0.2 6.5,-1.8 13.9,-3.5 76.2,-17.8 146.9,-45.6 193.7,-76.1 6.3,-4.2 8.3,-4.9 15.9,-6 12.7,-1.8 40.1,-0.8 53.2,1.9 31.5,6.6 58.7,18.7 82.7,36.6 11.6,8.7 30,27.4 39.3,39.9 19.3,26.1 32.3,56.2 37.8,87.6 2.8,15.9 2.6,43.8 -0.4,58.8 -8.2,40.6 -30.4,71.6 -63.7,88.5 -9.5,4.8 -23.1,9.2 -33.6,10.7 -10.3,1.5 -29.2,0.8 -39.4,-1.4 -28.2,-6.3 -54.8,-23.5 -72.6,-47.2 -28.7,-38.2 -35,-84.8 -16.3,-120.5 9.7,-18.4 27.3,-32.4 47.4,-37.5 8.8,-2.3 25.4,-2.3 34.5,0 15.9,4 32.7,14.6 44.2,27.9 16.6,19.3 24.1,48.1 18.4,70.6 -6.7,26.6 -29.6,43 -54.7,39.4 -23.7,-3.4 -43.7,-24.2 -46.9,-48.9 -0.6,-4.4 0.4,-17.8 2.1,-27.2 0.4,-1.8 0.2,-3.2 -0.4,-3.2 -0.5,0 -1.2,1.7 -1.6,3.7 -0.3,2.1 -1.3,7.6 -2.1,12.3 -5.2,28.7 14.2,58.6 43.7,67.7 8.5,2.7 22.6,2.2 31.7,-1 24.9,-8.8 39.5,-33.4 37.8,-63.7 -2.8,-49.9 -47.2,-90.8 -95,-87.7 -59.2,3.9 -92.3,65.8 -71,132.7 3.6,11.1 12.6,28.9 19.9,39.2 8.2,11.5 24.2,27.2 35.4,34.7 24.1,16.1 46.6,23.3 72.5,23.3 21.6,0 38.1,-3.9 56.5,-13.3 32.2,-16.5 55.6,-46.4 66.1,-84.7 l 2.2,-8.2 1.9,5.2 c 2.4,7 8.3,15.5 13.5,19.4 4.7,3.6 11,5.1 16.7,4 8.3,-1.6 20,-13 19.4,-19 -0.3,-3.1 -0.3,-3.1 -7.7,-3.8 -9.5,-0.8 -19.4,-5.6 -28.2,-13.7 -11.7,-10.7 -11.7,-10.7 -12.3,-32.1 -0.6,-24.1 -3.6,-41.2 -10.7,-62.1 C 1024.3,824.3 973.5,773.1 909,751.6 888.7,744.8 864.5,740 851,740 c -3.3,0 -6,-0.3 -6,-0.6 0,-0.3 4.1,-5 9.1,-10.4 92.3,-99.8 131.4,-246.9 102.4,-385 -12.3,-58.2 -37.4,-113.9 -69.9,-154.3 -7.2,-9.1 -8.1,-12.8 -8,-33.7 0.1,-14.9 0.3,-17.4 2.8,-25.4 4.4,-14.7 8.1,-21.2 16.8,-29.7 8.8,-8.6 9.7,-11.4 5.1,-14.7 -7.4,-5.2 -25.9,-7.1 -35.3,-3.7 -15.7,5.6 -22.3,15.9 -22.3,34.5 0,11.3 2.1,20.4 7.2,31.2 l 3.7,7.6 -3.2,-2.6 C 835.2,137.8 829.3,133.1 821.9,128 l -8.6,-5.9 -0.6,-8.1 c -1,-15.8 2,-37.2 7.5,-52.9 5.8,-16.3 14.6,-28.9 28,-39.6 4.6,-3.8 5.3,-6.2 2.9,-10.1 C 846.4,3.7 824.2,-1.8 808,0.7 Z"
           id="path4-1"
           style="fill:#bbbbbb;fill-opacity:1;stroke:none;stroke-width:12.4024;stroke-miterlimit:4;stroke-dasharray:none" />
        <path
           d="m 933.2,210.7 c -13.7,6.7 -8.7,28.4 6.6,28.6 9.2,0.1 15.6,-6.2 15.6,-15.5 0,-11 -12,-18.1 -22.2,-13.1 z"
           id="path6"
           style="fill:#bbbbbb;fill-opacity:1;stroke:none;stroke-width:12.4024;stroke-miterlimit:4;stroke-dasharray:none" />
        <path
           d="m 964,252.1 c -4.5,1 -11,7.7 -11.1,11.6 -0.2,6.2 0.4,8.9 2.7,12.1 9,11.8 27.4,5.9 27.4,-8.8 0,-9.9 -9,-17 -19,-14.9 z"
           id="path8"
           style="fill:#bbbbbb;fill-opacity:1;stroke:none;stroke-width:12.4024;stroke-miterlimit:4;stroke-dasharray:none" />
        <path
           d="m 968,306.2 c -9,4.6 -11.4,15.9 -4.9,23.3 3.8,4.2 7.9,5.9 13.3,5.3 17.8,-2 17.9,-27.7 0.1,-30.3 -3,-0.5 -5.1,-0.1 -8.5,1.7 z"
           id="path10"
           style="fill:#bbbbbb;fill-opacity:1;stroke:none;stroke-width:12.4024;stroke-miterlimit:4;stroke-dasharray:none" />
        <path
           d="m 1184.9,327.8 c -14,4.7 -28.6,14 -39.6,25.5 -17,17.7 -29.7,40.5 -56.3,100.7 -26.5,60.2 -40.4,84.6 -58.4,102.6 -11.5,11.5 -19.9,16.4 -32.1,18.8 l -7,1.4 7.5,0.3 c 55.8,2.2 144,-19.1 192.5,-46.4 12.6,-7.1 31.3,-21.5 42.5,-32.7 42.3,-42.2 48.2,-87.8 16.8,-131.2 -14.9,-20.6 -25.9,-31.3 -37.8,-37 -8.4,-4.1 -19.5,-4.8 -28.1,-2 z"
           id="path12"
           style="fill:#bbbbbb;fill-opacity:1;stroke:none;stroke-width:12.4024;stroke-miterlimit:4;stroke-dasharray:none" />
        <path
           d="m 627.5,351.1 c -12.3,1.8 -19.2,5.5 -22.7,12.2 -2,3.7 -2.3,5.6 -2.3,16.2 0.1,11.2 0.3,12.5 3.2,19.3 4.1,9.2 11.5,20.6 26.3,40.2 14.3,19.1 19.3,26.4 23.2,34.2 5.5,11.1 7.1,20.2 4.8,26.4 -1.7,4.5 -0.3,3.9 3,-1.2 9.1,-14.4 20.2,-42.3 25.4,-64.2 3.4,-14.2 4.3,-23.9 3.4,-36.8 -1.9,-27.6 -13.3,-43 -34.5,-46.4 -6.9,-1.2 -21.5,-1.1 -29.8,0.1 z"
           id="path14"
           style="fill:#bbbbbb;fill-opacity:1;stroke:none;stroke-width:12.4024;stroke-miterlimit:4;stroke-dasharray:none" />
        <path
           d="m 1263.4,485.6 c -6.9,3.4 -8.3,12.7 -2.8,18.5 9.6,10 24.6,-2 17.4,-13.9 -1.9,-3.1 -7.1,-6.2 -10.2,-6.2 -0.7,0 -2.7,0.7 -4.4,1.6 z"
           id="path16"
           style="fill:#bbbbbb;fill-opacity:1;stroke:none;stroke-width:12.4024;stroke-miterlimit:4;stroke-dasharray:none" />
        <path
           d="m 1239.2,523.4 c -8,4.4 -8.1,16.3 -0.2,21 4.7,2.7 9.5,2.1 13.8,-1.8 3.4,-3.1 3.7,-3.9 3.7,-8.6 0,-4.7 -0.3,-5.5 -3.7,-8.6 -4.1,-3.7 -9.2,-4.5 -13.6,-2 z"
           id="path18"
           style="fill:#bbbbbb;fill-opacity:1;stroke:none;stroke-width:12.4024;stroke-miterlimit:4;stroke-dasharray:none" />
        <path
           d="m 824,536.5 c 0,4.7 -4.5,13.1 -10.2,19.1 -12.9,13.7 -32.1,22.9 -78.3,37.4 -36.9,11.6 -48.1,15.7 -63.5,23.2 -13.7,6.7 -15,7.6 -23.6,16.3 -11.8,11.9 -16.9,21.4 -16.9,31.5 0,5.7 0.6,7.7 3.9,14.6 3.3,6.7 5.9,9.8 16.5,20.5 10.8,10.8 13.8,13.2 20.8,16.7 10.6,5.2 17.3,6.6 29.8,5.9 7.4,-0.3 11.9,-1.1 17.1,-3.1 25.5,-9.4 49.4,-31.9 69,-64.8 24,-40.4 39.7,-85.8 38.1,-110.2 -0.3,-4.3 -1,-8.3 -1.6,-8.9 -0.8,-0.8 -1.1,-0.3 -1.1,1.8 z"
           id="path20"
           style="fill:#bbbbbb;fill-opacity:1;stroke:none;stroke-width:12.4024;stroke-miterlimit:4;stroke-dasharray:none" />
        <path
           d="m 1197.9,540.3 c -4.8,3.2 -6.8,9.1 -4.8,14.3 3.4,9 14.1,11.1 20.6,4 9.9,-10.8 -3.7,-26.5 -15.8,-18.3 z"
           id="path22"
           style="fill:#bbbbbb;fill-opacity:1;stroke:none;stroke-width:12.4024;stroke-miterlimit:4;stroke-dasharray:none" />
        <path
           d="m 1128.1,612.1 c -19.5,3.8 -40.7,14.9 -90.8,47.7 -40.4,26.5 -58.6,36.2 -78.1,41.8 -8.1,2.3 -10.7,2.6 -19.5,2.2 -7.8,-0.3 -11.4,-0.9 -15.2,-2.6 -4.7,-2.1 -4.9,-2.2 -3,-0.3 6.5,6.5 37.2,22.7 59.5,31.4 39.8,15.7 76.4,24 104.5,23.9 53.6,-0.1 90.2,-20.1 102.3,-55.7 2.6,-7.7 2.7,-8.8 2.7,-28 -0.1,-17.1 -0.4,-21.3 -2.3,-28.7 -4.8,-19.5 -12.6,-27.9 -29.1,-31.4 -7.2,-1.5 -24,-1.7 -31,-0.3 z"
           id="path24"
           style="fill:#bbbbbb;fill-opacity:1;stroke:none;stroke-width:12.4024;stroke-miterlimit:4;stroke-dasharray:none" />
        <path
           d="m 275.5,693.2 c -6.2,3.4 -7.4,11 -2.6,15.9 8,7.9 21.4,-2.2 16.1,-12.2 -2.2,-4 -9.3,-6 -13.5,-3.7 z"
           id="path26"
           style="fill:#bbbbbb;fill-opacity:1;stroke:none;stroke-width:12.4024;stroke-miterlimit:4;stroke-dasharray:none" />
        <path
           d="m 250.9,723.9 c -5,5.1 -3.1,13.9 3.5,16.1 4.5,1.4 8,0.4 11.1,-3.2 5.5,-6.6 1.2,-15.8 -7.5,-15.8 -3.3,0 -4.8,0.6 -7.1,2.9 z"
           id="path28"
           style="fill:#bbbbbb;fill-opacity:1;stroke:none;stroke-width:12.4024;stroke-miterlimit:4;stroke-dasharray:none" />
        <path
           d="m 253.4,759.4 c -10.2,4.5 -7.4,18.6 3.6,18.6 10.9,0 14,-15.4 3.8,-18.9 -3.8,-1.3 -3.6,-1.3 -7.4,0.3 z"
           id="path30"
           style="fill:#bbbbbb;fill-opacity:1;stroke:none;stroke-width:12.4024;stroke-miterlimit:4;stroke-dasharray:none" />
        <path
           d="m 1144.8,762.6 c -8,4.3 -7.5,17 0.8,20.9 4.4,2.1 7.5,1.9 11.5,-0.8 4.7,-3.1 6.6,-9.1 4.5,-14.1 -2.7,-6.5 -10.7,-9.4 -16.8,-6 z"
           id="path32"
           style="fill:#bbbbbb;fill-opacity:1;stroke:none;stroke-width:12.4024;stroke-miterlimit:4;stroke-dasharray:none" />
        <path
           d="m 1063,771.8 c -5,2.4 -7.6,8.1 -6.1,13.1 3.9,13.2 23.2,11 23.1,-2.6 0,-4 -2,-7.4 -5.9,-10 -4.1,-2.8 -6.5,-2.9 -11.1,-0.5 z"
           id="path34"
           style="fill:#bbbbbb;fill-opacity:1;stroke:none;stroke-width:12.4024;stroke-miterlimit:4;stroke-dasharray:none" />
        <path
           d="m 1103.3,781 c -4,2.4 -5.3,4.8 -5.3,9.7 0,8.5 7.4,14 15.4,11.3 4.8,-1.5 7.6,-5.7 7.6,-11.2 0,-5 -1.9,-8.2 -6,-10.3 -3.9,-2 -7.9,-1.9 -11.7,0.5 z"
           id="path36"
           style="fill:#bbbbbb;fill-opacity:1;stroke:none;stroke-width:12.4024;stroke-miterlimit:4;stroke-dasharray:none" />
        <path
           d="m 1051.8,1052.8 c -6.5,3.9 -7.3,13.1 -1.7,18.3 7.9,7.3 19.9,2.4 19.9,-8.1 0,-9.1 -10.5,-15 -18.2,-10.2 z"
           id="path38"
           style="fill:#bbbbbb;fill-opacity:1;stroke:none;stroke-width:12.4024;stroke-miterlimit:4;stroke-dasharray:none" />
        <path
           d="m 544.8,1070.8 c -3.1,1.8 -5.8,6.7 -5.8,10.4 0,3.7 3.7,8.8 7.7,10.5 7.1,2.9 15,-1.8 16,-9.5 1.3,-9.8 -9.5,-16.7 -17.9,-11.4 z"
           id="path40"
           style="fill:#bbbbbb;fill-opacity:1;stroke:none;stroke-width:12.4024;stroke-miterlimit:4;stroke-dasharray:none" />
        <path
           d="m 463.3,1079.5 c -6,2.6 -8.1,11 -4.3,17.2 2.1,3.6 8.2,6 12.2,5 10,-2.6 12.4,-15.7 3.9,-21.4 -3.9,-2.6 -7.2,-2.8 -11.8,-0.8 z"
           id="path42"
           style="fill:#bbbbbb;fill-opacity:1;stroke:none;stroke-width:12.4024;stroke-miterlimit:4;stroke-dasharray:none" />
        <path
           d="m 1023.5,1086.4 c -5.1,2.2 -7,5.2 -7,10.8 0,4.4 0.4,5.3 3.7,8.4 2.8,2.5 4.7,3.4 7.3,3.4 9.9,0 15.6,-9.5 10.5,-17.7 -3.1,-5.1 -9.3,-7.2 -14.5,-4.9 z"
           id="path44"
           style="fill:#bbbbbb;fill-opacity:1;stroke:none;stroke-width:12.4024;stroke-miterlimit:4;stroke-dasharray:none" />
        <path
           d="m 503.4,1088.9 c -5.9,3.6 -7,12.7 -2.2,17.8 7.6,8.1 20.3,2.8 20.3,-8.5 0,-3.8 -0.5,-4.8 -3.7,-7.8 -4.4,-4 -9.4,-4.5 -14.4,-1.5 z"
           id="path46"
           style="fill:#bbbbbb;fill-opacity:1;stroke:none;stroke-width:12.4024;stroke-miterlimit:4;stroke-dasharray:none" />
        <path
           d="m 979.2,1106 c -1.8,1.1 -4,3.6 -4.9,5.5 -1.5,3.2 -1.6,4 -0.3,7.8 4.5,12.9 23,10.6 23,-2.9 0,-4.9 -2.8,-9 -7.6,-11 -4.5,-1.9 -6.3,-1.8 -10.2,0.6 z"
           id="path48"
           style="fill:#bbbbbb;fill-opacity:1;stroke:none;stroke-width:12.4024;stroke-miterlimit:4;stroke-dasharray:none" />
      </g>
      <g
         id="g12989"
         transform="matrix(0.0294261,0,0,0.0294261,57.431712,12.631612)"
         style="fill:#bbbbbb;fill-opacity:1;stroke:none;stroke-width:12.4024;stroke-miterlimit:4;stroke-dasharray:none">
        <path
           d="m 808,0.7 c -27.5,4.2 -42.3,23.8 -40.7,53.8 0.8,13.2 4.5,27.3 10.6,40.1 2.7,5.7 4.8,10.4 4.6,10.4 -0.1,0 -3.4,-1.3 -7.1,-2.9 -65.8,-28 -138,-26.2 -202,5 -13.9,6.7 -34.4,19.6 -44.7,28.1 -50.8,41.6 -83.7,97.4 -97.1,164.8 -4.7,23.6 -6.1,62.9 -3.1,88.3 9.9,84.5 57.7,154.6 123.3,180.7 41.9,16.7 85.9,15.5 126.1,-3.6 42,-19.8 74.8,-58.4 90.1,-105.9 10.8,-33.4 12.1,-73.8 3.4,-107.2 -7.4,-28.7 -21.7,-53.9 -41,-72.4 -15.2,-14.5 -31.2,-23.6 -50.9,-29.1 -11,-3.1 -34.3,-3.6 -46.6,-1 -20,4.1 -38,13.8 -52.8,28.2 -11.4,11.2 -18,20.1 -24.6,33.5 -15.5,31.3 -16.1,64.9 -1.5,95.1 5.8,12 29.9,44.8 31.7,43 0.9,-0.8 -4,-9.2 -14,-24.1 -14.9,-22.2 -19.6,-33.8 -21.6,-53.3 -4.2,-40.4 20.9,-83.6 59.2,-101.8 35.8,-16.9 78.2,-9.6 108.2,18.8 5.1,4.8 11.8,12 14.8,16 32.1,42 38.8,106.1 16.7,161.3 -8,20.1 -19.4,36.9 -36.5,54 -22.1,22.2 -44,34.2 -73.8,40.7 -14.8,3.2 -41.7,3.2 -56.7,-0.1 -19.4,-4.2 -39.7,-13.2 -56.5,-25 C 514.6,528.5 496.3,510.5 487.6,499 458.4,460.2 443,411.5 443,358.1 c 0.1,-108.4 65.8,-204.9 160.7,-236 25.4,-8.4 42.3,-11.1 68.8,-11.1 32.3,0 58.8,5.4 88.2,18.1 43,18.4 82.6,52.2 112.5,95.9 42.7,62.3 64.4,148.1 58.8,232.2 -6.4,95.7 -44.1,182.2 -107.9,248.1 -14.6,15 -23.7,22.6 -41.1,34.2 -61.1,40.6 -159,78.1 -255.6,97.9 -57.4,11.8 -108.8,17.4 -162.9,17.9 -28.1,0.2 -26.4,0.6 -39.5,-8.3 -28.3,-19.2 -43.6,-55.7 -37.6,-89.8 8.1,-46.2 47,-70.8 83.1,-52.5 12.2,6.2 23.8,22.4 27,37.8 5,23.8 -4.8,47.6 -23.3,56.7 -3.9,1.9 -6.3,2.3 -14.2,2.3 -8.3,0 -10.1,-0.4 -14.5,-2.7 -6.3,-3.3 -13.9,-11.3 -16.6,-17.5 -1.1,-2.5 -2.5,-7.8 -3.1,-11.7 -1.4,-9.1 0.6,-17.7 5.9,-25.4 13.8,-20.1 42.3,-11.1 42.3,13.4 0,6 -1.2,9.5 -6.4,17.9 l -1.8,3 2.7,-3 c 7.2,-8 9,-20.1 4.6,-30 -2.9,-6.5 -6.4,-10.2 -12.6,-13.1 -19.9,-9.4 -40,9.4 -38.2,35.6 0.9,13.7 7.1,24.8 17.7,31.8 14.4,9.6 32.9,7.9 45.9,-4.3 6.6,-6.2 10.4,-12.2 13.7,-22 2.3,-6.7 2.7,-9.7 2.8,-19 0.1,-12.4 -2.1,-21.2 -7.7,-32 -3.9,-7.4 -16.4,-20.1 -23.4,-23.8 -6,-3.2 -18.8,-6.7 -24.7,-6.7 -3.9,-0.1 -4,-0.1 -2.1,-1.6 8,-5.9 12.5,-12.8 12.5,-19 0,-2.7 -0.8,-4.4 -3.3,-6.9 -5.5,-5.5 -15.6,-7 -14.4,-2.1 0.3,1.2 1,3.9 1.6,6 1.2,5 -0.2,13.3 -3.4,19.7 -2.1,4.1 -2.9,4.8 -7.1,5.8 -32.8,8.3 -55.3,47.2 -51.3,88.7 2.4,25.7 13.3,47.6 32.5,65.2 l 7.9,7.3 -8.5,-0.7 c -70.6,-5 -129.4,-17.6 -186.5,-40.1 -7.7,-3 -24.3,-10.6 -37,-16.8 -30.3,-14.9 -50.9,-27.4 -76.3,-46.2 -13.3,-9.8 -15.2,-8.7 -2.4,1.5 40.5,32.4 95,61.5 149.8,80.2 56,19.1 110.4,29.7 180.4,35.2 21.6,1.6 96.1,1.6 118,0 44.2,-3.4 92.3,-9.7 121.3,-15.8 l 7.1,-1.5 5.4,5.3 c 19.8,19.5 29.6,50.5 26.4,84 -3,32 -15.8,59.4 -38.2,81.8 -48.5,48.7 -119.6,48.3 -148.1,-0.7 -12,-20.8 -12.3,-49.5 -0.7,-72.8 16.1,-32.1 51.5,-51.9 80.6,-45 17.5,4.1 30.2,16 35.3,32.7 2.9,9.6 2.3,23.3 -1.5,33.2 -14,36.7 -60.4,48.8 -77.1,20.1 -7.8,-13.4 -4.3,-31 8.6,-42.9 6.1,-5.7 10.2,-7.4 23.9,-10.4 4,-0.9 4.2,-1 1.3,-1.1 -4.8,-0.2 -13.2,1.8 -18.9,4.5 -6.8,3.2 -14.7,11.8 -18.7,20.1 -2.9,6.1 -3.2,7.7 -3.2,15.8 0,7.6 0.4,9.9 2.7,14.6 4.9,10.7 14.4,17.7 27.1,20 22.8,4.2 50.7,-14.7 59.7,-40.5 4,-11.1 4.4,-25.7 1.1,-36.3 -2,-6.6 -7.8,-16 -13.2,-21.3 -17.3,-17 -45.5,-19.8 -71.4,-7.1 -27.6,13.6 -47.5,41.6 -51.6,72.6 -5.1,39.2 19,76.5 56.6,87.3 18,5.2 33.3,5.4 53.3,0.6 36.5,-8.8 72.1,-38.4 90.7,-75.4 10.1,-20.2 14.7,-39.7 14.8,-63 0,-31.6 -7.3,-54.8 -23.6,-74.3 -2.2,-2.6 -3.8,-4.9 -3.6,-5.1 0.2,-0.2 6.5,-1.8 13.9,-3.5 76.2,-17.8 146.9,-45.6 193.7,-76.1 6.3,-4.2 8.3,-4.9 15.9,-6 12.7,-1.8 40.1,-0.8 53.2,1.9 31.5,6.6 58.7,18.7 82.7,36.6 11.6,8.7 30,27.4 39.3,39.9 19.3,26.1 32.3,56.2 37.8,87.6 2.8,15.9 2.6,43.8 -0.4,58.8 -8.2,40.6 -30.4,71.6 -63.7,88.5 -9.5,4.8 -23.1,9.2 -33.6,10.7 -10.3,1.5 -29.2,0.8 -39.4,-1.4 -28.2,-6.3 -54.8,-23.5 -72.6,-47.2 -28.7,-38.2 -35,-84.8 -16.3,-120.5 9.7,-18.4 27.3,-32.4 47.4,-37.5 8.8,-2.3 25.4,-2.3 34.5,0 15.9,4 32.7,14.6 44.2,27.9 16.6,19.3 24.1,48.1 18.4,70.6 -6.7,26.6 -29.6,43 -54.7,39.4 -23.7,-3.4 -43.7,-24.2 -46.9,-48.9 -0.6,-4.4 0.4,-17.8 2.1,-27.2 0.4,-1.8 0.2,-3.2 -0.4,-3.2 -0.5,0 -1.2,1.7 -1.6,3.7 -0.3,2.1 -1.3,7.6 -2.1,12.3 -5.2,28.7 14.2,58.6 43.7,67.7 8.5,2.7 22.6,2.2 31.7,-1 24.9,-8.8 39.5,-33.4 37.8,-63.7 -2.8,-49.9 -47.2,-90.8 -95,-87.7 -59.2,3.9 -92.3,65.8 -71,132.7 3.6,11.1 12.6,28.9 19.9,39.2 8.2,11.5 24.2,27.2 35.4,34.7 24.1,16.1 46.6,23.3 72.5,23.3 21.6,0 38.1,-3.9 56.5,-13.3 32.2,-16.5 55.6,-46.4 66.1,-84.7 l 2.2,-8.2 1.9,5.2 c 2.4,7 8.3,15.5 13.5,19.4 4.7,3.6 11,5.1 16.7,4 8.3,-1.6 20,-13 19.4,-19 -0.3,-3.1 -0.3,-3.1 -7.7,-3.8 -9.5,-0.8 -19.4,-5.6 -28.2,-13.7 -11.7,-10.7 -11.7,-10.7 -12.3,-32.1 -0.6,-24.1 -3.6,-41.2 -10.7,-62.1 C 1024.3,824.3 973.5,773.1 909,751.6 888.7,744.8 864.5,740 851,740 c -3.3,0 -6,-0.3 -6,-0.6 0,-0.3 4.1,-5 9.1,-10.4 92.3,-99.8 131.4,-246.9 102.4,-385 -12.3,-58.2 -37.4,-113.9 -69.9,-154.3 -7.2,-9.1 -8.1,-12.8 -8,-33.7 0.1,-14.9 0.3,-17.4 2.8,-25.4 4.4,-14.7 8.1,-21.2 16.8,-29.7 8.8,-8.6 9.7,-11.4 5.1,-14.7 -7.4,-5.2 -25.9,-7.1 -35.3,-3.7 -15.7,5.6 -22.3,15.9 -22.3,34.5 0,11.3 2.1,20.4 7.2,31.2 l 3.7,7.6 -3.2,-2.6 C 835.2,137.8 829.3,133.1 821.9,128 l -8.6,-5.9 -0.6,-8.1 c -1,-15.8 2,-37.2 7.5,-52.9 5.8,-16.3 14.6,-28.9 28,-39.6 4.6,-3.8 5.3,-6.2 2.9,-10.1 C 846.4,3.7 824.2,-1.8 808,0.7 Z"
           id="path12943"
           style="fill:#bbbbbb;fill-opacity:1;stroke:none;stroke-width:12.4024;stroke-miterlimit:4;stroke-dasharray:none" />
        <path
           d="m 933.2,210.7 c -13.7,6.7 -8.7,28.4 6.6,28.6 9.2,0.1 15.6,-6.2 15.6,-15.5 0,-11 -12,-18.1 -22.2,-13.1 z"
           id="path12945"
           style="fill:#bbbbbb;fill-opacity:1;stroke:none;stroke-width:12.4024;stroke-miterlimit:4;stroke-dasharray:none" />
        <path
           d="m 964,252.1 c -4.5,1 -11,7.7 -11.1,11.6 -0.2,6.2 0.4,8.9 2.7,12.1 9,11.8 27.4,5.9 27.4,-8.8 0,-9.9 -9,-17 -19,-14.9 z"
           id="path12947"
           style="fill:#bbbbbb;fill-opacity:1;stroke:none;stroke-width:12.4024;stroke-miterlimit:4;stroke-dasharray:none" />
        <path
           d="m 968,306.2 c -9,4.6 -11.4,15.9 -4.9,23.3 3.8,4.2 7.9,5.9 13.3,5.3 17.8,-2 17.9,-27.7 0.1,-30.3 -3,-0.5 -5.1,-0.1 -8.5,1.7 z"
           id="path12949"
           style="fill:#bbbbbb;fill-opacity:1;stroke:none;stroke-width:12.4024;stroke-miterlimit:4;stroke-dasharray:none" />
        <path
           d="m 1184.9,327.8 c -14,4.7 -28.6,14 -39.6,25.5 -17,17.7 -29.7,40.5 -56.3,100.7 -26.5,60.2 -40.4,84.6 -58.4,102.6 -11.5,11.5 -19.9,16.4 -32.1,18.8 l -7,1.4 7.5,0.3 c 55.8,2.2 144,-19.1 192.5,-46.4 12.6,-7.1 31.3,-21.5 42.5,-32.7 42.3,-42.2 48.2,-87.8 16.8,-131.2 -14.9,-20.6 -25.9,-31.3 -37.8,-37 -8.4,-4.1 -19.5,-4.8 -28.1,-2 z"
           id="path12951"
           style="fill:#bbbbbb;fill-opacity:1;stroke:none;stroke-width:12.4024;stroke-miterlimit:4;stroke-dasharray:none" />
        <path
           d="m 627.5,351.1 c -12.3,1.8 -19.2,5.5 -22.7,12.2 -2,3.7 -2.3,5.6 -2.3,16.2 0.1,11.2 0.3,12.5 3.2,19.3 4.1,9.2 11.5,20.6 26.3,40.2 14.3,19.1 19.3,26.4 23.2,34.2 5.5,11.1 7.1,20.2 4.8,26.4 -1.7,4.5 -0.3,3.9 3,-1.2 9.1,-14.4 20.2,-42.3 25.4,-64.2 3.4,-14.2 4.3,-23.9 3.4,-36.8 -1.9,-27.6 -13.3,-43 -34.5,-46.4 -6.9,-1.2 -21.5,-1.1 -29.8,0.1 z"
           id="path12953"
           style="fill:#bbbbbb;fill-opacity:1;stroke:none;stroke-width:12.4024;stroke-miterlimit:4;stroke-dasharray:none" />
        <path
           d="m 1263.4,485.6 c -6.9,3.4 -8.3,12.7 -2.8,18.5 9.6,10 24.6,-2 17.4,-13.9 -1.9,-3.1 -7.1,-6.2 -10.2,-6.2 -0.7,0 -2.7,0.7 -4.4,1.6 z"
           id="path12955"
           style="fill:#bbbbbb;fill-opacity:1;stroke:none;stroke-width:12.4024;stroke-miterlimit:4;stroke-dasharray:none" />
        <path
           d="m 1239.2,523.4 c -8,4.4 -8.1,16.3 -0.2,21 4.7,2.7 9.5,2.1 13.8,-1.8 3.4,-3.1 3.7,-3.9 3.7,-8.6 0,-4.7 -0.3,-5.5 -3.7,-8.6 -4.1,-3.7 -9.2,-4.5 -13.6,-2 z"
           id="path12957"
           style="fill:#bbbbbb;fill-opacity:1;stroke:none;stroke-width:12.4024;stroke-miterlimit:4;stroke-dasharray:none" />
        <path
           d="m 824,536.5 c 0,4.7 -4.5,13.1 -10.2,19.1 -12.9,13.7 -32.1,22.9 -78.3,37.4 -36.9,11.6 -48.1,15.7 -63.5,23.2 -13.7,6.7 -15,7.6 -23.6,16.3 -11.8,11.9 -16.9,21.4 -16.9,31.5 0,5.7 0.6,7.7 3.9,14.6 3.3,6.7 5.9,9.8 16.5,20.5 10.8,10.8 13.8,13.2 20.8,16.7 10.6,5.2 17.3,6.6 29.8,5.9 7.4,-0.3 11.9,-1.1 17.1,-3.1 25.5,-9.4 49.4,-31.9 69,-64.8 24,-40.4 39.7,-85.8 38.1,-110.2 -0.3,-4.3 -1,-8.3 -1.6,-8.9 -0.8,-0.8 -1.1,-0.3 -1.1,1.8 z"
           id="path12959"
           style="fill:#bbbbbb;fill-opacity:1;stroke:none;stroke-width:12.4024;stroke-miterlimit:4;stroke-dasharray:none" />
        <path
           d="m 1197.9,540.3 c -4.8,3.2 -6.8,9.1 -4.8,14.3 3.4,9 14.1,11.1 20.6,4 9.9,-10.8 -3.7,-26.5 -15.8,-18.3 z"
           id="path12961"
           style="fill:#bbbbbb;fill-opacity:1;stroke:none;stroke-width:12.4024;stroke-miterlimit:4;stroke-dasharray:none" />
        <path
           d="m 1128.1,612.1 c -19.5,3.8 -40.7,14.9 -90.8,47.7 -40.4,26.5 -58.6,36.2 -78.1,41.8 -8.1,2.3 -10.7,2.6 -19.5,2.2 -7.8,-0.3 -11.4,-0.9 -15.2,-2.6 -4.7,-2.1 -4.9,-2.2 -3,-0.3 6.5,6.5 37.2,22.7 59.5,31.4 39.8,15.7 76.4,24 104.5,23.9 53.6,-0.1 90.2,-20.1 102.3,-55.7 2.6,-7.7 2.7,-8.8 2.7,-28 -0.1,-17.1 -0.4,-21.3 -2.3,-28.7 -4.8,-19.5 -12.6,-27.9 -29.1,-31.4 -7.2,-1.5 -24,-1.7 -31,-0.3 z"
           id="path12963"
           style="fill:#bbbbbb;fill-opacity:1;stroke:none;stroke-width:12.4024;stroke-miterlimit:4;stroke-dasharray:none" />
        <path
           d="m 275.5,693.2 c -6.2,3.4 -7.4,11 -2.6,15.9 8,7.9 21.4,-2.2 16.1,-12.2 -2.2,-4 -9.3,-6 -13.5,-3.7 z"
           id="path12965"
           style="fill:#bbbbbb;fill-opacity:1;stroke:none;stroke-width:12.4024;stroke-miterlimit:4;stroke-dasharray:none" />
        <path
           d="m 250.9,723.9 c -5,5.1 -3.1,13.9 3.5,16.1 4.5,1.4 8,0.4 11.1,-3.2 5.5,-6.6 1.2,-15.8 -7.5,-15.8 -3.3,0 -4.8,0.6 -7.1,2.9 z"
           id="path12967"
           style="fill:#bbbbbb;fill-opacity:1;stroke:none;stroke-width:12.4024;stroke-miterlimit:4;stroke-dasharray:none" />
        <path
           d="m 253.4,759.4 c -10.2,4.5 -7.4,18.6 3.6,18.6 10.9,0 14,-15.4 3.8,-18.9 -3.8,-1.3 -3.6,-1.3 -7.4,0.3 z"
           id="path12969"
           style="fill:#bbbbbb;fill-opacity:1;stroke:none;stroke-width:12.4024;stroke-miterlimit:4;stroke-dasharray:none" />
        <path
           d="m 1144.8,762.6 c -8,4.3 -7.5,17 0.8,20.9 4.4,2.1 7.5,1.9 11.5,-0.8 4.7,-3.1 6.6,-9.1 4.5,-14.1 -2.7,-6.5 -10.7,-9.4 -16.8,-6 z"
           id="path12971"
           style="fill:#bbbbbb;fill-opacity:1;stroke:none;stroke-width:12.4024;stroke-miterlimit:4;stroke-dasharray:none" />
        <path
           d="m 1063,771.8 c -5,2.4 -7.6,8.1 -6.1,13.1 3.9,13.2 23.2,11 23.1,-2.6 0,-4 -2,-7.4 -5.9,-10 -4.1,-2.8 -6.5,-2.9 -11.1,-0.5 z"
           id="path12973"
           style="fill:#bbbbbb;fill-opacity:1;stroke:none;stroke-width:12.4024;stroke-miterlimit:4;stroke-dasharray:none" />
        <path
           d="m 1103.3,781 c -4,2.4 -5.3,4.8 -5.3,9.7 0,8.5 7.4,14 15.4,11.3 4.8,-1.5 7.6,-5.7 7.6,-11.2 0,-5 -1.9,-8.2 -6,-10.3 -3.9,-2 -7.9,-1.9 -11.7,0.5 z"
           id="path12975"
           style="fill:#bbbbbb;fill-opacity:1;stroke:none;stroke-width:12.4024;stroke-miterlimit:4;stroke-dasharray:none" />
        <path
           d="m 1051.8,1052.8 c -6.5,3.9 -7.3,13.1 -1.7,18.3 7.9,7.3 19.9,2.4 19.9,-8.1 0,-9.1 -10.5,-15 -18.2,-10.2 z"
           id="path12977"
           style="fill:#bbbbbb;fill-opacity:1;stroke:none;stroke-width:12.4024;stroke-miterlimit:4;stroke-dasharray:none" />
        <path
           d="m 544.8,1070.8 c -3.1,1.8 -5.8,6.7 -5.8,10.4 0,3.7 3.7,8.8 7.7,10.5 7.1,2.9 15,-1.8 16,-9.5 1.3,-9.8 -9.5,-16.7 -17.9,-11.4 z"
           id="path12979"
           style="fill:#bbbbbb;fill-opacity:1;stroke:none;stroke-width:12.4024;stroke-miterlimit:4;stroke-dasharray:none" />
        <path
           d="m 463.3,1079.5 c -6,2.6 -8.1,11 -4.3,17.2 2.1,3.6 8.2,6 12.2,5 10,-2.6 12.4,-15.7 3.9,-21.4 -3.9,-2.6 -7.2,-2.8 -11.8,-0.8 z"
           id="path12981"
           style="fill:#bbbbbb;fill-opacity:1;stroke:none;stroke-width:12.4024;stroke-miterlimit:4;stroke-dasharray:none" />
        <path
           d="m 1023.5,1086.4 c -5.1,2.2 -7,5.2 -7,10.8 0,4.4 0.4,5.3 3.7,8.4 2.8,2.5 4.7,3.4 7.3,3.4 9.9,0 15.6,-9.5 10.5,-17.7 -3.1,-5.1 -9.3,-7.2 -14.5,-4.9 z"
           id="path12983"
           style="fill:#bbbbbb;fill-opacity:1;stroke:none;stroke-width:12.4024;stroke-miterlimit:4;stroke-dasharray:none" />
        <path
           d="m 503.4,1088.9 c -5.9,3.6 -7,12.7 -2.2,17.8 7.6,8.1 20.3,2.8 20.3,-8.5 0,-3.8 -0.5,-4.8 -3.7,-7.8 -4.4,-4 -9.4,-4.5 -14.4,-1.5 z"
           id="path12985"
           style="fill:#bbbbbb;fill-opacity:1;stroke:none;stroke-width:12.4024;stroke-miterlimit:4;stroke-dasharray:none" />
        <path
           d="m 979.2,1106 c -1.8,1.1 -4,3.6 -4.9,5.5 -1.5,3.2 -1.6,4 -0.3,7.8 4.5,12.9 23,10.6 23,-2.9 0,-4.9 -2.8,-9 -7.6,-11 -4.5,-1.9 -6.3,-1.8 -10.2,0.6 z"
           id="path12987"
           style="fill:#bbbbbb;fill-opacity:1;stroke:none;stroke-width:12.4024;stroke-miterlimit:4;stroke-dasharray:none" />
      </g>
      <g
         id="g12747"
         transform="matrix(0.36495405,0,0,0.36495405,60.697342,-61.539186)"
         style="fill:#bbbbbb;fill-opacity:1;stroke-width:1;stroke-miterlimit:4;stroke-dasharray:none">
        <path
           d="m -70.818671,170.90997 c -0.556147,0.1527 -2.19192,1.00327 -3.042518,1.59215 -0.250801,0.17447 -0.817861,0.66521 -1.25409,1.10142 -0.610676,0.61066 -0.905109,1.01416 -1.221351,1.66844 -0.774262,1.59216 -1.112329,3.90406 -0.937848,6.28134 0.185411,2.45365 0.82879,4.02398 2.224641,5.39803 1.221368,1.21047 2.573603,1.67938 4.852772,1.67938 0.643396,0 1.374042,-0.0763 1.908381,-0.2072 1.101416,-0.26157 3.009815,-0.6325 3.675019,-0.70882 0.490723,-0.0546 0.850598,0.10913 0.697942,0.34896 -0.02179,0.0436 0.06537,0.81788 0.196272,1.72301 0.141813,0.89421 0.316242,2.03925 0.381666,2.55181 0.229027,1.62481 0.458037,2.07193 1.079608,2.07193 0.229028,0 0.207202,0.0329 -0.207184,0.42529 -0.370771,0.35989 -0.436195,0.47984 -0.381666,0.74155 0.03269,0.16361 0.08734,0.52347 0.119849,0.79607 0.03269,0.27263 0.152708,1.22141 0.283521,2.12652 0.327155,2.41 0.218097,5.39802 -0.392578,11.17773 -0.09823,0.87237 -0.239906,1.99561 -0.31626,2.50814 -0.08716,0.51252 -0.239888,1.53763 -0.338032,2.29005 -0.09823,0.75247 -0.218115,1.57037 -0.283556,1.82117 -0.05448,0.26161 -0.174499,1.16685 -0.272626,2.01744 -0.08734,0.86149 -0.207185,1.79935 -0.250801,2.10468 -0.05448,0.29445 -0.229027,1.37404 -0.3817,2.39912 -0.163603,1.01421 -0.381666,2.42095 -0.501618,3.10795 -0.392579,2.30097 -0.45802,3.22791 -0.261714,3.60959 0.207202,0.41439 0.130744,0.64342 -0.207202,0.64342 -0.414403,0 -0.697925,0.42528 -0.992359,1.47217 -0.447107,1.59213 -1.014167,4.82005 -1.123224,6.37947 l -0.06537,0.93784 0.348963,0.29444 c 0.196289,0.1636 0.403473,0.29445 0.458002,0.29445 0.283539,0 0.04358,0.18539 -0.392578,0.30531 -0.283539,0.0763 -0.556165,0.22899 -0.643414,0.37079 -0.185394,0.28354 -0.425282,1.74479 -0.610676,3.63142 -0.07627,0.7197 -0.239905,2.13739 -0.381666,3.16245 -0.141812,1.01417 -0.316242,2.38821 -0.381683,3.05342 -0.06537,0.6543 -0.174499,1.53762 -0.229027,1.96294 -0.06537,0.41437 -0.228975,1.76662 -0.370771,2.99888 -0.436194,3.79498 -0.806965,6.21591 -1.145015,7.57905 -0.458019,1.83205 -0.621605,2.87892 -0.806999,5.07084 -0.08734,1.0469 -0.163603,1.98475 -0.163603,2.07198 0,0.0873 -0.03286,1.34132 -0.07644,2.78077 -0.141812,4.83097 0.316242,7.36095 1.341339,7.36095 0.327154,0 0.436194,0.27263 0.207185,0.50166 -0.719733,0.71971 -1.02508,2.74806 -0.665205,4.37296 0.730646,3.19517 2.30096,6.25948 4.438368,8.64772 2.159217,2.39909 3.44601,3.22792 6.412208,4.1112 l 0.926918,0.27263 3.925837,-0.0654 c 2.159199,-0.0328 4.634675,-0.10912 5.507064,-0.1636 2.671748,-0.18538 5.714266,-0.32712 10.196267,-0.50162 0.839669,-0.0329 2.584499,-0.13091 3.871292,-0.21789 1.286827,-0.0872 2.802612,-0.17446 3.347864,-0.18537 l 1.014202,-0.0329 -0.05465,0.62157 c -0.05448,0.53436 -0.03286,0.6325 0.109126,0.6325 0.109127,0 0.141813,0.0545 0.09823,0.13092 -0.0543,0.0763 -0.09823,0.35989 -0.109127,0.63253 -0.01211,0.27261 -0.0543,0.59978 -0.09823,0.73061 -0.06554,0.18538 -0.03286,0.2508 0.09823,0.2508 0.09823,0 0.174499,0.0763 0.174499,0.16361 0,0.19651 0.283504,0.21834 0.392561,0.0327 0.0543,-0.0763 0.109126,-0.0327 0.174498,0.13092 l 0.08716,0.25082 0.272626,-0.25082 c 0.152708,-0.14181 0.272626,-0.19651 0.272626,-0.13092 0,0.22898 0.305364,0.14182 0.534357,-0.1527 0.163603,-0.21833 0.229009,-0.24001 0.229009,-0.10913 0,0.26157 0.250818,0.2183 0.545252,-0.0984 l 0.261713,-0.28353 0.119849,0.24005 c 0.119849,0.2183 0.130745,0.2183 0.458037,-0.15271 0.261714,-0.29443 0.370771,-0.34896 0.468916,-0.26159 0.09823,0.0984 0.174498,0.0763 0.327154,-0.11985 0.109127,-0.13057 0.250801,-0.24006 0.316242,-0.24006 0.06537,0 0.119849,-0.0329 0.119849,-0.0873 0,-0.0873 0.523444,-0.34896 0.719733,-0.34896 0.07627,0 0.272626,-0.1636 0.458002,-0.37075 l 0.31626,-0.37079 0.185393,0.3817 c 0.120022,0.2508 0.239923,0.35984 0.33805,0.31624 0.09823,-0.0325 0.239923,0.0872 0.392579,0.33805 l 0.239922,0.39258 0.196272,-0.24003 0.19629,-0.24002 0.141812,0.21832 c 0.185394,0.29443 0.272626,0.28349 0.447107,-0.0546 l 0.152708,-0.29442 0.185411,0.26159 c 0.185377,0.25081 0.185377,0.26158 0.33805,0.0546 0.08734,-0.12002 0.163603,-0.28353 0.163603,-0.35985 0,-0.21833 0.163604,-0.17448 0.556165,0.1636 0.239922,0.19651 0.501636,0.30533 0.79607,0.31624 0.2508,0.0104 0.654309,0.0546 0.916022,0.0982 0.392579,0.0546 0.512531,0.0201 0.839686,-0.21787 0.403491,-0.31626 1.221369,-0.70887 1.450378,-0.71977 0.06537,0 0.130745,0.12002 0.130745,0.27263 0,0.15271 0.07627,0.30535 0.163603,0.33805 0.09823,0.0436 0.163603,0.2072 0.163603,0.43623 0,0.41438 0.06537,0.4471 0.425317,0.19649 0.207184,-0.1527 0.272625,-0.1527 0.338067,-0.0328 0.05465,0.0763 0.06537,0.18537 0.04341,0.22899 -0.130745,0.2072 0.272608,0.0654 0.501635,-0.18538 0.261731,-0.27261 0.512532,-0.38165 0.370754,-0.14181 -0.05465,0.0873 0,0.0984 0.152708,0.0654 0.141812,-0.0436 0.218097,-0.0201 0.174498,0.0329 -0.108953,0.17446 -0.163603,0.8833 -0.06537,0.81788 0.05465,-0.0329 0.08734,0.42531 0.07627,1.03599 -0.03286,0.93783 -0.01211,1.06871 0.130744,0.95962 0.130744,-0.12002 0.141813,-0.0873 0.08734,0.15271 -0.04341,0.1636 -0.04341,0.42528 -0.01211,0.57794 0.06537,0.22901 0.109127,0.26162 0.229027,0.1527 0.130745,-0.10912 0.141813,-0.0654 0.08716,0.26158 -0.03286,0.20718 -0.02179,0.46893 0.01211,0.57797 0.07627,0.17448 0.09823,0.1636 0.283522,-0.0763 l 0.218097,-0.27259 v 0.29442 c 0,0.35986 0.141812,0.45802 0.436212,0.30535 0.185394,-0.0984 0.218097,-0.0872 0.218097,0.10912 0,0.30535 0.141812,0.27265 0.59978,-0.12002 0.294434,-0.26157 0.414387,-0.31624 0.53434,-0.2183 0.119848,0.0984 0.207201,0.0436 0.447107,-0.25082 0.163603,-0.2072 0.359892,-0.34898 0.425299,-0.32717 0.141812,0.0547 0.610693,-0.42529 0.610693,-0.6434 0,-0.0984 0.03286,-0.0984 0.09823,0.0104 0.06537,0.10912 0.152708,0.0654 0.359875,-0.19629 l 0.272626,-0.34895 0.261713,0.52345 c 0.1418128,0.29445 0.3162422,0.58888 0.3707708,0.6543 0.098231,0.12003 0.4798451,0.58889 0.8724237,1.07961 0.1307442,0.16361 0.1962892,0.1854 0.2398879,0.0763 0.043754,-0.10913 0.098231,-0.0763 0.1854112,0.0984 0.065372,0.13058 0.2180973,0.29444 0.3271545,0.35986 0.1198489,0.0656 0.3271546,0.24005 0.4689152,0.39258 0.2072019,0.22898 0.2617133,0.2508 0.3489798,0.10913 0.098231,-0.14182 0.1307442,-0.13092 0.2726086,0.0545 0.098231,0.12003 0.1744813,0.2508 0.1744813,0.29446 0,0.0436 0.1091264,0.10912 0.2508006,0.14181 0.1307442,0.0436 0.3489798,0.20718 0.4907404,0.37079 0.1744986,0.18537 0.2726259,0.24 0.3053466,0.1527 0.043408,-0.0873 0.1636032,-0.12019 0.3380672,-0.0763 0.2508006,0.0654 0.2726086,0.0436 0.2289926,-0.15271 -0.05465,-0.20719 -0.032859,-0.22901 0.1962892,-0.17448 0.2944512,0.0763 0.3380499,-0.0545 0.1418125,-0.41441 -0.1091264,-0.19629 -0.098231,-0.21832 0.05465,-0.1636 0.2508179,0.0982 0.3489799,-0.19629 0.1853939,-0.53434 -0.1089535,-0.2508 -0.098231,-0.27264 0.087336,-0.20718 0.2835039,0.0873 0.3489452,-0.0654 0.2290099,-0.47985 -0.087163,-0.32717 -0.076268,-0.34898 0.1418125,-0.31624 0.1636032,0.0201 0.2290272,-0.0201 0.2071846,-0.13092 -0.1091264,-0.43623 -0.1091264,-0.76336 -0.021791,-0.76336 0.1089535,0 0.05465,-1.55944 -0.05465,-1.74482 -0.032859,-0.0654 -0.010377,-0.10912 0.05465,-0.10912 0.076268,0 0.065372,-0.10913 -0.032859,-0.30535 -0.2398879,-0.45802 -0.1307442,-0.56708 0.4253165,-0.49072 0.3707878,0.0436 0.4798278,0.0329 0.4798278,-0.0873 0,-0.12019 0.1198488,-0.14181 0.4907404,-0.12019 0.5125312,0.0436 0.6433964,-0.10878 0.3598406,-0.39258 -0.098231,-0.0984 -0.054304,-0.13092 0.2290272,-0.13092 0.3707705,0 0.3707705,0.0104 0.1527079,-0.52343 -0.032859,-0.0872 0.043408,-0.13091 0.2290272,-0.13091 0.3598405,0 0.3598405,-0.20721 0,-0.5998 -0.2508179,-0.27264 -0.2617133,-0.29442 -0.054304,-0.24004 0.3598406,0.0873 0.2726259,-0.15271 -0.2072019,-0.66519 -0.2508006,-0.25082 -0.3816658,-0.45806 -0.3162419,-0.45806 0.076268,0 0.021791,-0.12002 -0.1198488,-0.27262 l -0.2617133,-0.28352 0.8178777,0.0655 c 2.22464058,0.17447 2.15919958,0.15271 2.61721958,0.56704 l 0.42531602,0.3817 0.425282,-0.1636 c 0.239923,-0.0984 0.719733,-0.2072 1.068696,-0.24004 0.348962,-0.0329 0.806982,-0.0872 1.025079,-0.12002 0.458003,-0.0654 3.151593,0.30534 4.078511,0.578 0.359858,0.0982 0.872389,0.18538 1.145032,0.18538 0.425299,0.0104 0.512531,-0.0329 0.719716,-0.34898 0.141812,-0.19629 0.26173,-0.40349 0.283555,-0.46893 0.120022,-0.37077 3.740426,-0.41439 6.826578,-0.0763 2.475458,0.26185 4.809139,0.27263 5.910555,0.0201 1.035975,-0.23977 2.595411,-1.0251 3.304231,-1.67939 0.774262,-0.70885 1.254073,-1.36314 1.799342,-2.45361 0.621588,-1.24321 0.861511,-2.12653 1.112328,-4.05672 0.21808,-1.62485 0.21808,-1.75573 0.05448,-2.88986 -0.294434,-1.95204 -0.774244,-2.98801 -1.886573,-4.02397 -0.654292,-0.61067 -0.687012,-0.66522 -0.523461,-0.8506 0.283538,-0.30534 0.218097,-0.75243 -0.152708,-1.10141 -0.196272,-0.1854 -0.283504,-0.33807 -0.21808,-0.3817 0.239923,-0.15271 0.109127,-0.63247 -0.283504,-0.99236 -0.479828,-0.45801 -0.71975,-0.4689 -1.0578,-0.0201 l -0.272626,0.33805 -0.174481,-0.33805 c -0.09823,-0.1854 -0.261731,-0.39258 -0.370771,-0.44713 -0.45802,-0.24004 -1.221386,0.2072 -1.221386,0.70884 0,0.18539 -0.07627,0.30533 -0.218097,0.33807 -0.109127,0.0328 -0.283521,0.17448 -0.370771,0.30534 -0.163603,0.25082 -0.174481,0.25082 -0.523444,0.0763 -0.196289,-0.0984 -0.567059,-0.17446 -0.828807,-0.18538 -0.316242,0 -0.523427,-0.0654 -0.610659,-0.18537 -0.207184,-0.28351 -0.621606,-0.40348 -0.970551,-0.27261 -0.261748,0.0872 -0.34898,0.0654 -0.534356,-0.12002 l -0.218115,-0.21833 0.327155,-0.0763 c 0.447124,-0.0984 0.697925,-0.40348 0.752453,-0.94875 0.07627,-0.66524 -0.218079,-1.01418 -0.992358,-1.18866 -0.436212,-0.0984 -0.621589,-0.19652 -0.697908,-0.38168 -0.152708,-0.31623 -0.468933,-0.41441 -1.068696,-0.31623 -0.316242,0.0436 -0.523461,0.14181 -0.588885,0.28352 -0.06554,0.10913 -0.207185,0.20719 -0.316259,0.20719 -0.109127,0 -0.261713,0.0763 -0.33805,0.1636 -0.196289,0.22901 -0.327154,0.20718 -0.327154,-0.0763 0,-0.35989 -0.512532,-0.95967 -0.828791,-0.95967 -0.207184,0 -0.305329,-0.0873 -0.447107,-0.41439 -0.348945,-0.86151 -0.806965,-1.01415 -1.352217,-0.45802 -0.272626,0.27261 -0.370788,0.30535 -0.545269,0.2072 -0.120022,-0.0546 -0.348962,-0.0984 -0.512548,-0.0763 -0.239871,0.0201 -0.316225,0.10912 -0.392562,0.43621 -0.07627,0.31624 -0.05465,0.47981 0.130918,0.86151 0.130917,0.26158 0.207184,0.49071 0.185376,0.51251 -0.02231,0.0329 -0.218097,-0.0763 -0.436229,-0.24 -0.305295,-0.24003 -0.414369,-0.27263 -0.599746,-0.17449 -0.196289,0.0984 -0.218097,0.0873 -0.218097,-0.1636 0,-0.1636 -0.03269,-1.25409 -0.06555,-2.43182 l -0.06537,-2.14831 0.229027,0.20719 c 0.185377,0.1636 0.250818,0.17448 0.392561,0.0655 0.22901,-0.19629 0.207202,-0.54527 -0.06555,-0.82881 -0.185376,-0.19629 -0.207184,-0.2835 -0.109126,-0.458 0.229027,-0.4253 0.141812,-0.99236 -0.196272,-1.3413 -0.174481,-0.17448 -0.392579,-0.31626 -0.479828,-0.31626 -0.120022,0 -0.130917,-0.0654 -0.03269,-0.38167 0.130917,-0.41442 0.228993,-0.47984 0.327137,-0.21832 0.03269,0.10878 0.207202,0.1636 0.468933,0.1636 0.22901,0.0104 0.534321,0.0763 0.687029,0.16361 0.577955,0.33805 1.079591,0.0436 0.937831,-0.53434 -0.04358,-0.19629 0,-0.28354 0.207202,-0.37079 0.207184,-0.0984 0.272625,-0.20719 0.272625,-0.44713 0,-0.46889 -0.218114,-0.88331 -0.501635,-0.94874 -0.207185,-0.0547 -0.229028,-0.10912 -0.163604,-0.29441 0.218115,-0.58889 -0.316224,-1.02507 -1.014166,-0.82878 -0.218098,0.0655 -0.447108,0.0763 -0.512532,0.0327 -0.196289,-0.10913 0,-1.02508 0.316242,-1.53763 0.283539,-0.44709 0.294417,-0.458 0.545235,-0.29443 0.588885,0.39257 2.093775,0.64341 2.093775,0.35987 0,-0.21834 -0.447107,-0.86151 -0.686995,-0.99237 -0.392613,-0.20721 -0.948743,-0.29444 -1.28681,-0.19629 -0.621589,0.18537 -0.687013,0.0763 -0.599781,-1.0251 0.04358,-0.54524 0.09823,-1.46127 0.130917,-2.02835 0.02231,-0.56704 0.120022,-1.60302 0.19629,-2.29008 0.08734,-0.68698 0.218097,-1.86475 0.283521,-2.61721 0.294468,-3.43511 0.458002,-4.63464 0.665222,-5.02723 0.174481,-0.32716 0.185394,-0.458 0.08733,-0.74154 -0.09823,-0.27263 -0.08733,-0.45802 0.05465,-0.87243 0.09823,-0.30533 0.141813,-0.67611 0.109127,-0.90511 -0.04358,-0.26185 -0.01038,-0.46889 0.09823,-0.64339 0.120021,-0.17448 0.141812,-0.31626 0.07627,-0.42532 -0.05465,-0.0873 -0.06537,-0.30533 -0.03269,-0.49072 0.141813,-0.74153 0.686995,-2.79168 0.806965,-3.00983 0.06537,-0.13092 0.09823,-0.34895 0.06537,-0.49068 -0.02231,-0.14181 0.09823,-0.86152 0.272661,-1.60305 0.305329,-1.31955 0.512531,-2.37731 0.937813,-4.76554 0.130917,-0.68703 0.305363,-1.54854 0.392595,-1.89748 0.09823,-0.35986 0.207202,-0.88332 0.23994,-1.16686 0.06537,-0.51253 0.06537,-0.53434 -0.327172,-0.76333 -0.218097,-0.12002 -0.392578,-0.25084 -0.392578,-0.28354 0,-0.0201 0.141812,-0.22899 0.327137,-0.44711 0.174481,-0.21832 0.468915,-0.77429 0.654327,-1.22138 0.338049,-0.82878 0.468915,-1.69029 0.937813,-5.87784 0.196289,-1.79936 0.327171,-2.81352 0.479827,-3.60958 0.06555,-0.32713 0.229028,-1.53761 0.381701,-2.68267 0.141812,-1.14504 0.338032,-2.56268 0.436194,-3.16246 0.392579,-2.44275 0.556148,-5.67066 0.534322,-10.51252 -0.01038,-2.55178 -0.05465,-4.98362 -0.109126,-5.39801 -0.04358,-0.4253 -0.07627,-1.34132 -0.05465,-2.06107 0.02231,-1.18865 -0.06537,-2.21375 -0.305346,-3.44598 -0.22901,-1.15594 -0.370771,-1.84297 -0.501619,-2.50821 -0.07627,-0.39256 -0.196289,-1.00322 -0.27266,-1.36313 -0.130918,-0.7088 -0.403457,-1.95198 -0.556113,-2.56269 -0.05465,-0.20719 -0.141813,-0.58889 -0.207202,-0.83969 -0.130917,-0.51253 -0.534339,-0.90512 -0.970551,-0.91602 H 15.13519 l 0.272608,-0.10912 c 1.014167,-0.4035 0.894232,-1.28682 -0.58885,-4.2421 -1.308635,-2.59539 -2.300977,-4.08939 -3.489643,-5.25625 -1.27588,-1.26498 -1.864765,-1.55943 -3.097046,-1.57033 -0.90511,-0.0104 -0.91604,-0.0104 -1.134137,-0.34896 -0.392579,-0.62159 -1.657564,-1.22137 -3.227895,-1.53763 -1.635755,-0.33805 -9.0185148,-0.41437 -11.1449933,-0.12002 -0.4471245,0.0547 -2.8026127,0.15271 -5.2344547,0.2183 -4.492897,0.0984 -7.633577,0.24003 -9.967257,0.4362 -3.642282,0.30533 -19.007563,0.52348 -22.802535,0.32717 -1.319513,-0.0763 -5.441622,-0.17448 -9.160258,-0.21832 -7.175557,-0.0872 -7.448183,-0.0984 -13.086129,-0.87241 -1.090504,-0.14181 -2.628114,-0.12002 -3.293336,0.0547 z m 86.215639,107.05524 c -0.327155,0.19629 -0.468932,0.53436 -0.403491,0.97057 0.03269,0.2835 -0.05465,0.29442 -0.588868,0.0763 -0.3817,-0.14182 -0.3817,-0.28356 -0.03269,-0.41439 0.305347,-0.12002 0.512548,-0.54525 0.479845,-0.98148 -0.03269,-0.54523 0.01038,-0.55615 0.436195,-0.19629 l 0.425281,0.34898 z m -4.569251,-0.0201 c 0.130917,0 0.207202,0.0984 0.23994,0.29443 0.03269,0.17447 0.09823,0.4035 0.141813,0.51252 0.08733,0.20718 0.07627,0.20718 -0.239906,-0.0201 -0.185376,-0.13092 -0.414404,-0.24003 -0.501653,-0.24003 -0.207184,0 -0.33805,-0.35989 -0.239905,-0.65433 0.06537,-0.19651 0.08734,-0.19651 0.22901,-0.0546 0.09823,0.0873 0.261713,0.16361 0.37077,0.16361 z m 7.524503,0.10913 c 0.130917,0.0873 0.120021,0.10912 -0.07627,0.10912 -0.141812,0 -0.2508,-0.0546 -0.2508,-0.10912 0,-0.14182 0.120021,-0.14182 0.327171,0 z m 3.74046,1.73393 c 0.06537,0.26158 0,0.33805 -0.272626,0.33805 -0.229027,0 -0.239905,-0.0436 -0.06537,-0.32715 0.174481,-0.27263 0.261713,-0.27263 0.33805,-0.0104 z m -8.647727,0.33805 c 0,0.0546 -0.02231,0.10913 -0.04358,0.10913 -0.03269,0 -0.08716,-0.0547 -0.120022,-0.10913 -0.03269,-0.0654 -0.01038,-0.10913 0.04358,-0.10913 0.06555,0 0.120021,0.0436 0.120022,0.10913 z"
           id="path4"
           style="fill:#bbbbbb;fill-opacity:1;stroke:none;stroke-width:1;stroke-miterlimit:4;stroke-dasharray:none" />
      </g>
      <g
         id="g14048"
         transform="matrix(0.36495405,0,0,0.36495405,90.155656,-25.699756)">
        <text
           xml:space="preserve"
           style="font-style:normal;font-weight:normal;font-size:10.5833px;line-height:1.25;font-family:sans-serif;fill:#333333;fill-opacity:1;stroke:none;stroke-width:1;stroke-miterlimit:4;stroke-dasharray:none"
           x="-130.85649"
           y="95.945305"
           id="text1970"><tspan
             sodipodi:role="line"
             id="tspan1968"
             style="font-style:normal;font-variant:normal;font-weight:normal;font-stretch:normal;font-family:Seshat;-inkscape-font-specification:Seshat;fill:#333333;fill-opacity:1;stroke-width:1;stroke-miterlimit:4;stroke-dasharray:none"
             x="-130.85649"
             y="95.945305">The Scroll of</tspan></text>
        <g
           id="g12767"
           transform="translate(60.49016,-5.9313068)"
           style="fill:#eeeeee;fill-opacity:1;stroke:#333333;stroke-opacity:1">
          <text
             xml:space="preserve"
             style="font-style:normal;font-weight:normal;font-size:43.5675px;line-height:1.25;font-family:sans-serif;fill:#eeeeee;fill-opacity:1;stroke:#333333;stroke-width:7;stroke-miterlimit:4;stroke-dasharray:none;stroke-opacity:1;paint-order:stroke fill markers"
             x="-220.12996"
             y="136.48782"
             id="text6690"
             transform="scale(0.9642665,1.0370577)"><tspan
               sodipodi:role="line"
               id="tspan6688"
               style="font-style:normal;font-variant:normal;font-weight:normal;font-stretch:normal;font-family:Seshat;-inkscape-font-specification:Seshat;fill:#eeeeee;fill-opacity:1;stroke:#333333;stroke-width:7;stroke-miterlimit:4;stroke-dasharray:none;stroke-opacity:1;paint-order:stroke fill markers"
               x="-220.12996"
               y="136.48782">Many</tspan></text>
          <text
             xml:space="preserve"
             style="font-style:normal;font-variant:normal;font-weight:normal;font-stretch:normal;font-size:43.5675px;line-height:1.25;font-family:Seshat;-inkscape-font-specification:Seshat;fill:#eeeeee;fill-opacity:1;stroke:#333333;stroke-width:7;stroke-miterlimit:4;stroke-dasharray:none;stroke-opacity:1;paint-order:stroke fill markers"
             x="-237.70938"
             y="174.46878"
             id="text7266"
             transform="scale(0.9642665,1.0370577)"><tspan
               sodipodi:role="line"
               id="tspan7264"
               style="font-style:normal;font-variant:normal;font-weight:normal;font-stretch:normal;font-family:Seshat;-inkscape-font-specification:Seshat;fill:#eeeeee;fill-opacity:1;stroke:#333333;stroke-width:7;stroke-miterlimit:4;stroke-dasharray:none;stroke-opacity:1;paint-order:stroke fill markers"
               x="-237.70938"
               y="174.46878">Glances</tspan></text>
        </g>
      </g>
    </g>
  </g>
</svg>
