<?xml version="1.0" encoding="UTF-8" standalone="no"?>
<!-- Created with Inkscape (http://www.inkscape.org/) -->

<svg
   width="90.88353mm"
   height="58.188984mm"
   viewBox="0 0 90.88353 58.188984"
   version="1.1"
   id="svg5"
   inkscape:version="1.1.1 (3bf5ae0d25, 2021-09-20)"
   sodipodi:docname="logo.svg"
   xmlns:inkscape="http://www.inkscape.org/namespaces/inkscape"
   xmlns:sodipodi="http://sodipodi.sourceforge.net/DTD/sodipodi-0.dtd"
   xmlns="http://www.w3.org/2000/svg"
   xmlns:svg="http://www.w3.org/2000/svg">
  <sodipodi:namedview
     id="namedview7"
     pagecolor="#ffffff"
     bordercolor="#666666"
     borderopacity="1.0"
     inkscape:pageshadow="2"
     inkscape:pageopacity="0.0"
     inkscape:pagecheckerboard="0"
     inkscape:document-units="mm"
     showgrid="false"
     inkscape:zoom="2"
     inkscape:cx="260.5"
     inkscape:cy="82.25"
     inkscape:window-width="1920"
     inkscape:window-height="1017"
     inkscape:window-x="1912"
     inkscape:window-y="-8"
     inkscape:window-maximized="1"
     inkscape:current-layer="layer1"
     fit-margin-top="2"
     fit-margin-left="2"
     fit-margin-bottom="2"
     fit-margin-right="2" />
  <defs
     id="defs2" />
  <g
     inkscape:label="Livello 1"
     inkscape:groupmode="layer"
     id="layer1"
     transform="translate(-4.5582337,4.0944914)">
    <text
       xml:space="preserve"
       style="font-style:normal;font-weight:normal;font-size:10.5833px;line-height:1.25;font-family:sans-serif;fill:#000000;fill-opacity:1;stroke:none;stroke-width:0.264583"
       x="110.07692"
       y="151.96153"
       id="text4482"><tspan
         sodipodi:role="line"
         id="tspan4480"
         style="stroke-width:0.264583"
         x="110.07692"
         y="151.96153" /></text>
    <path
       d="m 16.577049,31.308184 c 0.813631,0.09006 1.383572,-0.354319 1.566575,-1.219207 0.07779,-0.381282 0.08001,-0.810232 0.0041,-1.220509 -0.03333,-0.182577 -0.05723,-0.332161 -0.05154,-0.330638 0.0028,7.62e-4 0.08674,0.06284 0.17972,0.136502 1.657012,1.296991 3.722892,1.795706 5.779611,1.396321 0.446113,-0.08457 1.12704,-0.295107 1.484537,-0.458261 1.760737,-0.79552 3.120842,-2.13098 4.015036,-3.944664 0.313328,-0.634997 0.652431,-1.741375 0.760608,-2.486178 0.362163,-2.477178 -0.462593,-4.833706 -2.128391,-6.075168 -1.063754,-0.793783 -2.323523,-1.09478 -3.611611,-0.858057 -1.344581,0.24291 -2.570848,1.090248 -3.367488,2.323835 -0.561348,0.86709 -0.905986,2.005495 -0.913078,3.021097 -0.0082,0.87211 0.206284,1.69729 0.61396,2.370112 0.321603,0.527904 0.707072,0.908413 1.225125,1.214778 0.289048,0.171889 0.947506,0.363554 1.316916,0.38333 0.599694,0.03579 1.185191,-0.102834 1.715528,-0.399414 0.409327,-0.231519 0.664704,-0.434222 0.954354,-0.76483 0.678944,-0.771605 0.951897,-1.722062 0.766919,-2.691643 -0.07346,-0.385254 -0.508662,-1.501089 -0.573533,-1.463635 -0.03167,0.01588 0.04363,0.291959 0.214382,0.791628 0.254433,0.744479 0.299677,1.109986 0.208011,1.679475 -0.188309,1.180293 -1.23075,2.217023 -2.457978,2.442635 -1.14627,0.207702 -2.295826,-0.322709 -2.932233,-1.358415 -0.108402,-0.175274 -0.244004,-0.43095 -0.29881,-0.567492 -0.592519,-1.438258 -0.294768,-3.311226 0.753794,-4.711885 0.38047,-0.510382 0.832446,-0.901073 1.448721,-1.256879 0.797233,-0.462686 1.511099,-0.636976 2.407621,-0.594771 0.445038,0.02176 1.209628,0.226634 1.610846,0.434672 0.519427,0.267129 1.027878,0.677545 1.415522,1.140891 0.251934,0.299032 0.634994,0.950027 0.794693,1.343156 0.534462,1.325217 0.601282,2.826724 0.194586,4.344535 -0.82842,3.080337 -3.430785,5.322824 -6.365026,5.484031 -0.78593,0.04531 -1.286849,-0.0067 -2.04007,-0.208483 -0.918076,-0.245998 -1.63017,-0.601309 -2.369095,-1.186198 -1.082072,-0.85048 -1.950218,-2.112786 -2.467258,-3.582609 -0.739201,-2.095983 -0.702534,-4.699981 0.09714,-7.047741 0.910764,-2.671378 2.641114,-4.84288 4.956425,-6.23008 0.529222,-0.315158 0.845757,-0.46187 1.42867,-0.659063 2.045882,-0.688651 5.114136,-1.0089199 8.010636,-0.8359951 1.721373,0.1017637 3.224987,0.3340565 4.766502,0.7318721 0.800221,0.208326 0.754948,0.184009 1.059512,0.536748 0.658155,0.761263 0.815048,1.915243 0.384801,2.838785 -0.58209,1.251473 -1.875116,1.654425 -2.761828,0.859338 -0.299546,-0.269141 -0.505878,-0.817946 -0.479546,-1.280038 0.03914,-0.714558 0.498955,-1.316398 1.094094,-1.434155 0.125322,-0.0243 0.196585,-0.01739 0.42113,0.04277 0.235914,0.06321 0.28403,0.08829 0.391576,0.187176 0.153935,0.141778 0.309025,0.427047 0.338548,0.623836 0.01223,0.07944 0.01165,0.240742 -9.95e-4,0.356163 -0.02951,0.269316 -0.151857,0.498525 -0.361145,0.677021 -0.545325,0.466209 -1.286848,-0.0067 -1.100256,-0.703032 0.0457,-0.170541 0.106461,-0.260883 0.318237,-0.460037 l 0.07401,-0.07156 -0.09959,0.06471 c -0.265577,0.172552 -0.408893,0.502766 -0.359229,0.817669 0.03292,0.206838 0.104227,0.338661 0.258365,0.468308 0.494036,0.41874 1.208528,0.03746 1.356906,-0.720941 0.07876,-0.396255 -0.01293,-0.758975 -0.260905,-1.038669 -0.336183,-0.382535 -0.874964,-0.475112 -1.337384,-0.227355 -0.234814,0.12596 -0.388519,0.267559 -0.556953,0.520976 -0.116402,0.17292 -0.150619,0.255144 -0.224291,0.51872 -0.09728,0.351689 -0.10177,0.61857 -0.02485,0.968193 0.05449,0.240036 0.313062,0.696214 0.483846,0.854693 0.14617,0.136651 0.483333,0.333618 0.651031,0.378552 0.11009,0.03255 0.112932,0.03331 0.0475,0.06147 -0.272322,0.10677 -0.452778,0.26862 -0.499997,0.444845 -0.02056,0.07674 -0.01077,0.131156 0.04125,0.221255 0.114441,0.198217 0.390093,0.317774 0.393304,0.16936 6.12e-4,-0.03639 0.0013,-0.118468 2.19e-4,-0.182727 0.004,-0.151256 0.106977,-0.376508 0.246675,-0.534046 0.09092,-0.100543 0.118985,-0.114346 0.245979,-0.110782 0.995501,0.01389 1.931292,-0.920419 2.133664,-2.130455 0.127515,-0.748761 -0.01551,-1.454248 -0.427196,-2.100728 l -0.168948,-0.267658 0.236267,0.08463 c 1.968614,0.679808 3.543949,1.485766 4.995565,2.560168 0.196013,0.143914 0.60996,0.486358 0.923718,0.759307 0.74775,0.654275 1.238073,1.166458 1.816846,1.894265 0.303394,0.379843 0.365777,0.363047 0.07964,-0.02436 C 44.116673,14.788293 42.789223,13.546098 41.37404,12.597222 39.927794,11.627837 38.46229,10.912236 36.514539,10.222786 35.912779,10.012802 33.795234,9.4454076 33.160575,9.324094 31.878366,9.0841051 30.463218,8.8968417 29.592481,8.8493596 L 29.379251,8.837921 29.266129,8.6461503 C 28.851858,7.9410962 28.809406,6.9853331 29.155498,6.0575198 29.484481,5.1708184 30.05698,4.4895019 30.864263,4.0234164 32.6137,3.0085733 34.631559,3.5614424 35.068441,5.1712468 35.251108,5.8538463 35.041055,6.6718833 34.53389,7.245803 33.831799,8.0355767 32.674812,8.328753 31.900241,7.9110049 31.434057,7.6611884 31.16371,7.2262261 31.145939,6.7127132 c -0.0093,-0.2949513 0.112079,-0.6797825 0.295487,-0.9322335 0.677436,-0.9365151 2.088437,-0.9270547 2.344528,0.015885 0.119648,0.4402788 -0.113876,0.9138749 -0.571169,1.1538668 -0.216794,0.1155558 -0.346278,0.1326498 -0.758527,0.1135805 -0.120548,-0.00488 -0.126994,-0.00356 -0.04533,0.021365 0.134909,0.042242 0.388898,0.04937 0.571475,0.016038 0.217651,-0.039166 0.507693,-0.2234407 0.6846,-0.428891 0.128886,-0.1512964 0.149599,-0.194489 0.211288,-0.4247187 0.05788,-0.216018 0.06403,-0.2844383 0.03445,-0.4355452 -0.05778,-0.3414492 -0.274493,-0.6127654 -0.617954,-0.7748629 -0.616067,-0.2930238 -1.553023,0.031692 -2.005327,0.6964716 -0.198232,0.2850358 -0.320795,0.6969713 -0.307728,1.0233925 0.0066,0.2028266 0.09985,0.5141797 0.212968,0.7059504 0.362252,0.6149555 1.142468,0.9093131 1.975358,0.7455908 C 34.058126,8.0322462 34.837,7.3879494 35.189633,6.5380491 35.633141,5.4626928 35.232215,4.2189529 34.245747,3.6256172 33.773729,3.3407269 33.340374,3.218517 32.735349,3.2026288 31.630873,3.1747698 30.393564,3.7449724 29.583096,4.6549807 29.142175,5.1522119 28.862915,5.6714349 28.682619,6.332939 c -0.240666,0.89818 -0.209867,1.6132004 0.104922,2.2915984 0.04273,0.090656 0.07069,0.1682156 0.06348,0.1723771 -0.0072,0.00416 -0.198461,0.00166 -0.421741,-0.00638 -2.30143,-0.074405 -4.522692,0.1773131 -6.085197,0.6877972 -0.211054,0.071397 -0.273232,0.076062 -0.497628,0.049446 C 21.471771,9.4822151 20.700585,9.2451125 20.348801,9.0685993 19.503729,8.6410998 18.822766,8.0900204 18.276931,7.3984564 18.013479,7.0628267 17.632908,6.3911738 17.46377,5.965052 17.113977,5.0762113 16.973715,4.121658 17.056529,3.1872745 c 0.04151,-0.4732573 0.259682,-1.2647475 0.459192,-1.6682507 0.542283,-1.09153944 1.40938,-1.80358959 2.484591,-2.03033159 0.306579,-0.0640801 0.726648,-0.0855652 1.036518,-0.048232 0.304186,0.03581 0.836057,0.19964934 1.109221,0.33986437 0.753559,0.39383959 1.378626,1.08530882 1.704063,1.89450922 0.52482,1.3043547 0.348981,2.6768671 -0.45443,3.5491634 C 22.979842,5.6731126 22.372966,5.9369984 21.762813,5.9288756 21.49517,5.9272256 21.023341,5.8008023 20.782205,5.6661226 20.360737,5.431334 19.963953,5.0020965 19.738377,4.5364806 19.413538,3.8614825 19.419704,2.9857678 19.753077,2.3896522 20.1461,1.6846167 20.9219,1.3928797 21.60791,1.6863663 c 0.64774,0.2771396 1.057795,1.0206673 0.960634,1.7470971 -0.01646,0.1296326 -0.146934,0.5028904 -0.266845,0.7571233 -0.02508,0.048116 -0.03006,0.089432 -0.013,0.094001 0.01421,0.00381 0.04706,-0.039181 0.07366,-0.092981 0.02452,-0.057404 0.09483,-0.2061172 0.153366,-0.3336144 C 22.882103,3.0818439 22.558408,2.0842326 21.789223,1.6009066 21.568187,1.4594272 21.163609,1.3662528 20.880585,1.3879019 20.10582,1.4483889 19.503484,2.036411 19.321038,2.9105878 19.020584,4.3502414 19.971088,5.850911 21.353337,6.1268446 23.065706,6.4668623 24.477954,4.9595431 24.382047,2.8957949 24.364261,2.5528772 24.244015,1.9783961 24.11497,1.6300378 23.969482,1.2407171 23.634279,0.6726129 23.373057,0.37413771 22.81067,-0.26702567 22.225979,-0.64303497 21.489812,-0.84029015 20.875866,-1.0047964 20.377177,-1.0196096 19.782596,-0.89256436 18.741697,-0.66881409 17.84887,0.00283106 17.25873,1.0114797 l -0.124983,0.2163168 -0.0144,-0.1622722 C 17.104442,0.84828186 17.00148,0.56174821 16.883381,0.41129352 16.777208,0.27317386 16.609565,0.18255775 16.439174,0.17041214 c -0.2481,-0.0177356 -0.667477,0.21718386 -0.696119,0.39229399 -0.01508,0.0903974 -0.01508,0.0903974 0.189919,0.16665243 0.26393,0.095091 0.508765,0.30692214 0.697201,0.60417294 0.251063,0.3932381 0.251063,0.3932381 0.105134,1.0060689 -0.166493,0.6895741 -0.211457,1.1984626 -0.168825,1.8465859 0.135141,2.0651221 1.18911,3.9072955 2.858676,5.009633 0.525207,0.3478846 1.176497,0.668625 1.560213,0.7714414 0.0938,0.025133 0.168255,0.054223 0.165971,0.06275 -0.0023,0.0085 -0.154616,0.110891 -0.33786,0.226298 -3.383562,2.133697 -5.615235,6.016996 -5.84273,10.163135 -0.09364,1.74792 0.19557,3.522267 0.811644,4.918094 0.135342,0.313489 0.132744,0.42551 -0.02927,1.018798 -0.116321,0.422747 -0.141046,0.492282 -0.273033,0.70063 -0.237019,0.384313 -0.391689,0.540886 -0.703709,0.716226 -0.315624,0.17742 -0.36253,0.250151 -0.256915,0.378982 0.170729,0.204161 0.682092,0.399062 0.975167,0.374013 0.488897,-0.0396 0.754937,-0.282095 0.896595,-0.810771 0.08606,-0.321184 0.09568,-0.595831 0.03297,-0.941646 l -0.04729,-0.244197 0.07115,0.09827 c 0.40002,0.576332 0.531922,0.754857 0.703414,0.956175 l 0.199507,0.233196 -0.04464,0.2348 c -0.09191,0.456706 -0.340163,1.042119 -0.616064,1.446478 -0.288997,0.419129 -0.635085,0.710243 -1.09745,0.912319 -0.159689,0.07297 -0.197864,0.13586 -0.15935,0.26499 0.07495,0.254656 0.664058,0.58006 1.143558,0.632381 z"
       id="path4-1"
       style="fill:#bbbbbb;fill-opacity:1;stroke:none;stroke-width:0.364954;stroke-miterlimit:4;stroke-dasharray:none" />
    <path
       d="m 14.617803,24.385739 c 0.440428,-0.0861 0.463579,-0.740965 0.03022,-0.863175 -0.260734,-0.07291 -0.490625,0.05742 -0.561454,0.321753 -0.08378,0.312657 0.203231,0.605856 0.53123,0.541422 z"
       id="path6"
       style="fill:#bbbbbb;fill-opacity:1;stroke:none;stroke-width:0.364954;stroke-miterlimit:4;stroke-dasharray:none" />
    <path
       d="m 14.057665,22.974436 c 0.135522,0.0058 0.371301,-0.135084 0.403846,-0.245174 0.0529,-0.174702 0.05641,-0.256015 0.01541,-0.364487 -0.165942,-0.40394 -0.733867,-0.376377 -0.845823,0.04145 -0.0754,0.281392 0.126338,0.551743 0.426566,0.568214 z"
       id="path8"
       style="fill:#bbbbbb;fill-opacity:1;stroke:none;stroke-width:0.364954;stroke-miterlimit:4;stroke-dasharray:none" />
    <path
       d="m 14.355999,21.406265 c 0.290844,-0.0622 0.445122,-0.36511 0.316728,-0.624947 -0.07602,-0.14832 -0.17961,-0.227865 -0.337666,-0.251938 -0.521169,-0.07872 -0.719744,0.651002 -0.233608,0.860468 0.08146,0.03706 0.144197,0.04168 0.254546,0.01642 z"
       id="path10"
       style="fill:#bbbbbb;fill-opacity:1;stroke:none;stroke-width:0.364954;stroke-miterlimit:4;stroke-dasharray:none" />
    <path
       d="m 8.3554653,19.140402 c 0.4337232,-0.02697 0.9195342,-0.180109 1.3197762,-0.423202 0.6180015,-0.373622 1.1526245,-0.924953 2.3671725,-2.433456 1.211706,-1.509265 1.792623,-2.096934 2.441333,-2.471467 0.414453,-0.239285 0.690529,-0.314585 1.055573,-0.289886 l 0.209626,0.01352 -0.210891,-0.06565 C 13.968784,12.982755 11.299617,12.91644 9.7131632,13.323022 9.3009543,13.428867 8.6597655,13.695744 8.2561237,13.928787 6.7324165,14.806097 6.2174274,16.05727 6.7793871,17.52999 c 0.2666187,0.699002 0.4977848,1.086908 0.7926121,1.339553 0.207531,0.18051 0.5176998,0.284945 0.7834661,0.270857 z"
       id="path12"
       style="fill:#bbbbbb;fill-opacity:1;stroke:none;stroke-width:0.364954;stroke-miterlimit:4;stroke-dasharray:none" />
    <path
       d="m 24.376133,22.723311 c 0.363317,0.04252 0.587618,-0.0101 0.738127,-0.173881 0.08503,-0.08994 0.108024,-0.141655 0.188754,-0.442943 0.08246,-0.319104 0.08667,-0.357578 0.05603,-0.572943 -0.04647,-0.292721 -0.169979,-0.673107 -0.441371,-1.342923 -0.260989,-0.651797 -0.347509,-0.897368 -0.398955,-1.148773 -0.07179,-0.357388 -0.04796,-0.628227 0.06463,-0.786935 0.08259,-0.114959 0.03823,-0.108567 -0.09441,0.01126 -0.368324,0.339991 -0.896311,1.048466 -1.210904,1.631336 -0.204787,0.377718 -0.304244,0.646571 -0.37691,1.020087 -0.156198,0.798957 0.05054,1.323501 0.627225,1.5816 0.186982,0.08666 0.602725,0.19501 0.847779,0.224115 z"
       id="path14"
       style="fill:#bbbbbb;fill-opacity:1;stroke:none;stroke-width:0.364954;stroke-miterlimit:4;stroke-dasharray:none" />
    <path
       d="m 7.3260363,14.057328 c 0.2220161,-0.04409 0.332638,-0.297764 0.2204822,-0.504508 -0.1967046,-0.357349 -0.7144482,-0.130508 -0.6004304,0.262566 0.030395,0.102583 0.1545869,0.230299 0.2426995,0.253909 0.019896,0.0053 0.082075,6.67e-4 0.1372487,-0.01197 z"
       id="path16"
       style="fill:#bbbbbb;fill-opacity:1;stroke:none;stroke-width:0.364954;stroke-miterlimit:4;stroke-dasharray:none" />
    <path
       d="m 8.301769,13.167231 c 0.2608979,-0.06413 0.354371,-0.401612 0.1656214,-0.595369 -0.1130268,-0.112539 -0.2540289,-0.132041 -0.4059521,-0.05394 -0.1202493,0.06222 -0.1348692,0.08267 -0.1706645,0.216262 -0.035795,0.13359 -0.033361,0.158614 0.039669,0.272621 0.088357,0.136392 0.2272233,0.197973 0.3713264,0.160425 z"
       id="path18"
       style="fill:#bbbbbb;fill-opacity:1;stroke:none;stroke-width:0.364954;stroke-miterlimit:4;stroke-dasharray:none" />
    <path
       d="m 20.202943,15.957059 c 0.0358,-0.13359 0.227675,-0.338074 0.435385,-0.465203 0.471002,-0.291154 1.086799,-0.406422 2.510393,-0.466701 1.137171,-0.04868 1.486739,-0.07992 1.981579,-0.175806 0.440429,-0.0861 0.484234,-0.101777 0.794934,-0.283563 0.426028,-0.24837 0.643339,-0.47955 0.720261,-0.766627 0.04341,-0.162013 0.04159,-0.22343 3.43e-4,-0.444684 -0.04277,-0.21557 -0.09306,-0.323484 -0.312858,-0.708345 -0.22472,-0.389226 -0.291712,-0.48029 -0.464019,-0.633084 -0.261685,-0.228532 -0.44146,-0.319352 -0.802084,-0.394656 -0.212618,-0.04783 -0.346616,-0.05936 -0.50965,-0.04212 -0.796388,0.07297 -1.647068,0.530475 -2.454735,1.316332 -0.989849,0.965521 -1.781865,2.136373 -1.922218,2.84209 -0.02422,0.124505 -0.03479,0.24353 -0.02231,0.265154 0.01665,0.02883 0.02898,0.01691 0.04498,-0.04279 z"
       id="path20"
       style="fill:#bbbbbb;fill-opacity:1;stroke:none;stroke-width:0.364954;stroke-miterlimit:4;stroke-dasharray:none" />
    <path
       d="m 9.6043672,13.001417 c 0.1608037,-0.0544 0.2625851,-0.206864 0.2453416,-0.369898 -0.028095,-0.281705 -0.3162323,-0.422886 -0.5550583,-0.270584 -0.363645,0.231574 -0.096658,0.7814 0.3097167,0.640482 z"
       id="path22"
       style="fill:#bbbbbb;fill-opacity:1;stroke:none;stroke-width:0.364954;stroke-miterlimit:4;stroke-dasharray:none" />
    <path
       d="m 12.135153,11.492214 c 0.583197,0.0405 1.270312,-0.113536 2.944131,-0.664261 1.350131,-0.445533 1.941313,-0.582629 2.538219,-0.593287 0.247747,-0.0037 0.323932,0.0076 0.571012,0.08598 0.219418,0.06793 0.317173,0.112403 0.412234,0.189664 0.117597,0.09549 0.12252,0.09985 0.08299,0.03138 C 18.548487,10.30743 17.799268,9.6131583 17.231685,9.1960371 16.220004,8.4466714 15.24292,7.9320103 14.44346,7.7208422 12.919204,7.3154654 11.726586,7.6051871 11.111532,8.5249069 10.978987,8.7239655 10.967767,8.7544697 10.82154,9.3001993 c -0.127392,0.4868021 -0.150852,0.6084653 -0.153207,0.8332687 -0.01208,0.590814 0.145648,0.888976 0.587979,1.114122 0.193224,0.09747 0.669214,0.231105 0.878841,0.244624 z"
       id="path24"
       style="fill:#bbbbbb;fill-opacity:1;stroke:none;stroke-width:0.364954;stroke-miterlimit:4;stroke-dasharray:none" />
    <path
       d="m 36.986621,15.680502 c 0.202119,-0.04942 0.294109,-0.256299 0.194996,-0.432131 -0.167221,-0.285473 -0.625017,-0.100451 -0.550533,0.224148 0.03207,0.130449 0.218642,0.24137 0.355537,0.207983 z"
       id="path26"
       style="fill:#bbbbbb;fill-opacity:1;stroke:none;stroke-width:0.364954;stroke-miterlimit:4;stroke-dasharray:none" />
    <path
       d="m 37.919649,14.995257 c 0.180959,-0.106879 0.193975,-0.371476 0.02314,-0.484273 -0.117243,-0.07407 -0.224341,-0.0723 -0.339871,0.0064 -0.206595,0.145707 -0.154441,0.439951 0.09284,0.50621 0.0938,0.02513 0.141002,0.0195 0.223893,-0.02835 z"
       id="path28"
       style="fill:#bbbbbb;fill-opacity:1;stroke:none;stroke-width:0.364954;stroke-miterlimit:4;stroke-dasharray:none" />
    <path
       d="m 38.11896,13.967186 c 0.324191,-0.05022 0.351991,-0.472317 0.03933,-0.556093 -0.309815,-0.08301 -0.515214,0.331096 -0.251952,0.508261 0.09811,0.06589 0.09242,0.06437 0.212619,0.04783 z"
       id="path30"
       style="fill:#bbbbbb;fill-opacity:1;stroke:none;stroke-width:0.364954;stroke-miterlimit:4;stroke-dasharray:none" />
    <path
       d="m 12.806694,7.0873018 c 0.260137,-0.061292 0.342648,-0.426078 0.136437,-0.6001423 -0.10907,-0.0932 -0.198706,-0.1111248 -0.332963,-0.064846 -0.157199,0.052317 -0.2569,0.2083873 -0.235291,0.366498 0.02724,0.2053156 0.23254,0.3486717 0.431817,0.2984903 z"
       id="path32"
       style="fill:#bbbbbb;fill-opacity:1;stroke:none;stroke-width:0.364954;stroke-miterlimit:4;stroke-dasharray:none" />
    <path
       d="M 15.201797,7.4487976 C 15.362193,7.4186615 15.479505,7.2764497 15.47495,7.1229085 15.464631,6.7180169 14.899303,6.633559 14.798568,7.0208791 c -0.03046,0.1136937 4.88e-4,0.2255654 0.09154,0.3291688 0.09521,0.1108113 0.162665,0.1319321 0.311691,0.09875 z"
       id="path34"
       style="fill:#bbbbbb;fill-opacity:1;stroke:none;stroke-width:0.364954;stroke-miterlimit:4;stroke-dasharray:none" />
    <path
       d="m 14.126401,6.8803761 c 0.131972,-0.037752 0.187201,-0.096068 0.22452,-0.2353422 0.06474,-0.2415991 -0.103709,-0.4542865 -0.35166,-0.4384715 -0.147856,0.00608 -0.259429,0.1041316 -0.301317,0.2604604 -0.03808,0.1421171 -0.0084,0.2475425 0.0921,0.3384574 0.09562,0.086549 0.210075,0.1141712 0.336362,0.074896 z"
       id="path36"
       style="fill:#bbbbbb;fill-opacity:1;stroke:none;stroke-width:0.364954;stroke-miterlimit:4;stroke-dasharray:none" />
    <path
       d="m 17.660244,-0.45288393 c 0.214455,-0.0613471 0.307261,-0.31674978 0.187693,-0.50720133 -0.168948,-0.26765764 -0.547347,-0.21977524 -0.627316,0.0786707 -0.0693,0.25865312 0.184206,0.50631961 0.439623,0.42853063 z"
       id="path38"
       style="fill:#bbbbbb;fill-opacity:1;stroke:none;stroke-width:0.364954;stroke-miterlimit:4;stroke-dasharray:none" />
    <path
       d="m 32.208007,2.8968217 c 0.101821,-0.027552 0.215883,-0.1462639 0.244062,-0.2514306 0.02818,-0.1051666 -0.03815,-0.2783054 -0.138892,-0.3570893 -0.17972,-0.1365017 -0.44006,-0.063078 -0.527127,0.148166 -0.111587,0.2686487 0.142835,0.5470234 0.421957,0.4603539 z"
       id="path40"
       style="fill:#bbbbbb;fill-opacity:1;stroke:none;stroke-width:0.364954;stroke-miterlimit:4;stroke-dasharray:none" />
    <path
       d="m 34.590775,3.2702444 c 0.190342,-0.028205 0.314006,-0.2509678 0.253216,-0.4561339 -0.03227,-0.118318 -0.187376,-0.232992 -0.308685,-0.2350327 -0.304036,-0.00226 -0.472022,0.351809 -0.273835,0.5785587 0.09105,0.1036034 0.183324,0.134421 0.329304,0.1126079 z"
       id="path42"
       style="fill:#bbbbbb;fill-opacity:1;stroke:none;stroke-width:0.364954;stroke-miterlimit:4;stroke-dasharray:none" />
    <path
       d="m 18.720526,-1.1923772 c 0.161714,-0.02369 0.238567,-0.09449 0.281217,-0.2536607 0.03351,-0.1250631 0.02899,-0.1536906 -0.04119,-0.2669361 -0.06055,-0.092383 -0.107696,-0.1324349 -0.181597,-0.1522366 -0.281392,-0.075399 -0.515757,0.1512124 -0.433249,0.4231262 0.04927,0.1685691 0.209502,0.2754777 0.374821,0.2497072 z"
       id="path44"
       style="fill:#bbbbbb;fill-opacity:1;stroke:none;stroke-width:0.364954;stroke-miterlimit:4;stroke-dasharray:none" />
    <path
       d="m 33.522586,2.6976615 c 0.195116,-0.05739 0.295688,-0.3076653 0.198097,-0.4891816 -0.154328,-0.2881116 -0.55567,-0.234191 -0.641731,0.086994 -0.02894,0.108009 -0.02235,0.1402404 0.04576,0.249882 0.0946,0.1472042 0.232908,0.1994961 0.397873,0.152306 z"
       id="path46"
       style="fill:#bbbbbb;fill-opacity:1;stroke:none;stroke-width:0.364954;stroke-miterlimit:4;stroke-dasharray:none" />
    <path
       d="m 20.128957,-1.4120861 c 0.05954,-0.017557 0.141112,-0.07186 0.181163,-0.1190103 0.06701,-0.079531 0.07594,-0.101508 0.06793,-0.2194178 -0.02966,-0.4009343 -0.573008,-0.476457 -0.675825,-0.092741 -0.03732,0.1392748 0.01104,0.2771357 0.132242,0.3705395 0.113435,0.088277 0.165359,0.099143 0.294488,0.060629 z"
       id="path48"
       style="fill:#bbbbbb;fill-opacity:1;stroke:none;stroke-width:0.364954;stroke-miterlimit:4;stroke-dasharray:none" />
    <path
       d="m 79.555838,14.514763 c -0.809218,0.12359 -1.244724,0.700341 -1.197642,1.583124 0.02354,0.388425 0.132417,0.803333 0.311916,1.179987 0.07945,0.167729 0.141245,0.306031 0.13536,0.306031 -0.0029,0 -0.100048,-0.03825 -0.208925,-0.08534 -1.936237,-0.823931 -4.060802,-0.770964 -5.944072,0.14713 -0.409023,0.197155 -1.012258,0.576752 -1.315347,0.826874 -1.494846,1.224125 -2.462964,2.866102 -2.857274,4.849421 -0.138303,0.694456 -0.179499,1.850902 -0.09122,2.598325 0.291318,2.486505 1.697886,4.549275 3.628238,5.317296 1.232954,0.491416 2.527702,0.456104 3.710631,-0.105934 1.235896,-0.582637 2.201072,-1.718484 2.651292,-3.116224 0.317802,-0.982832 0.356056,-2.171646 0.100049,-3.154478 -0.217754,-0.844529 -0.638547,-1.586067 -1.206471,-2.13045 -0.447276,-0.426678 -0.918094,-0.694456 -1.497788,-0.856299 -0.323687,-0.09122 -1.009315,-0.105934 -1.371256,-0.02943 -0.588522,0.120647 -1.118192,0.40608 -1.553698,0.829816 -0.335458,0.329572 -0.52967,0.591464 -0.723882,0.985774 -0.456105,0.921037 -0.473761,1.909754 -0.04414,2.798422 0.170672,0.353113 0.879841,1.31829 0.932808,1.265323 0.02648,-0.02354 -0.117705,-0.270721 -0.411966,-0.709169 -0.438449,-0.65326 -0.576751,-0.994603 -0.635603,-1.568412 -0.12359,-1.188814 0.615005,-2.460022 1.742025,-2.995577 1.053454,-0.497301 2.301121,-0.28249 3.183904,0.553211 0.150073,0.141245 0.347228,0.353113 0.435506,0.470818 0.944578,1.235896 1.141733,3.122109 0.491416,4.74643 -0.235409,0.591464 -0.570866,1.085823 -1.074053,1.589009 -0.650317,0.653259 -1.294748,1.006373 -2.171646,1.197642 -0.435506,0.09416 -1.227068,0.09416 -1.66846,-0.0029 -0.570866,-0.12359 -1.168216,-0.388425 -1.662574,-0.735653 -0.320745,-0.223638 -0.859243,-0.753308 -1.11525,-1.091708 -0.859242,-1.141733 -1.312404,-2.574784 -1.312404,-4.146138 0.0029,-3.189789 1.936238,-6.029407 4.728775,-6.944559 0.747423,-0.247179 1.244724,-0.32663 2.024515,-0.32663 0.950463,0 1.730255,0.158901 2.595382,0.532613 1.265323,0.54144 2.430596,1.536042 3.310437,2.821962 1.256494,1.833247 1.89504,4.358006 1.730254,6.832741 -0.188327,2.816078 -1.297691,5.361435 -3.175076,7.300615 -0.429621,0.441392 -0.697399,0.66503 -1.209413,1.006373 -1.797934,1.1947 -4.67875,2.298178 -7.521311,2.880815 -1.689058,0.347228 -3.20156,0.512014 -4.793512,0.526727 -0.826873,0.0059 -0.776849,0.01766 -1.162331,-0.244236 -0.832758,-0.564981 -1.282977,-1.639034 -1.106421,-2.642464 0.238352,-1.359486 1.383027,-2.083368 2.445309,-1.54487 0.358998,0.182441 0.700341,0.659144 0.794505,1.112306 0.14713,0.700341 -0.141246,1.400683 -0.685628,1.66846 -0.114762,0.05591 -0.185385,0.06768 -0.417851,0.06768 -0.244237,0 -0.297204,-0.01177 -0.426678,-0.07945 -0.185385,-0.09711 -0.409023,-0.332515 -0.488474,-0.514957 -0.03237,-0.07357 -0.07357,-0.229524 -0.09122,-0.344285 -0.0412,-0.267778 0.01766,-0.520842 0.173614,-0.747423 0.406081,-0.591465 1.244724,-0.32663 1.244724,0.394309 0,0.176557 -0.03531,0.279548 -0.188327,0.526728 l -0.05297,0.08828 0.07945,-0.08828 c 0.211868,-0.235409 0.264835,-0.591465 0.13536,-0.882783 -0.08534,-0.19127 -0.188327,-0.300147 -0.370769,-0.385482 -0.585579,-0.276606 -1.177044,0.276605 -1.124077,1.047569 0.02648,0.403137 0.208925,0.729767 0.520842,0.93575 0.423736,0.28249 0.968119,0.232466 1.350658,-0.126532 0.194212,-0.182442 0.306031,-0.358999 0.403138,-0.647375 0.06768,-0.197155 0.07945,-0.285433 0.08239,-0.559096 0.0029,-0.364883 -0.06179,-0.623833 -0.226581,-0.941635 -0.114762,-0.217753 -0.482588,-0.591464 -0.688571,-0.700341 -0.176557,-0.09416 -0.553211,-0.197155 -0.726825,-0.197155 -0.114762,-0.0029 -0.117704,-0.0029 -0.0618,-0.04708 0.235409,-0.173614 0.367827,-0.376654 0.367827,-0.559095 0,-0.07945 -0.02354,-0.129475 -0.09711,-0.203041 -0.161844,-0.161843 -0.459048,-0.205982 -0.423736,-0.06179 0.0088,0.03531 0.02943,0.114761 0.04708,0.176556 0.03531,0.147131 -0.0059,0.391367 -0.100048,0.579694 -0.0618,0.120647 -0.08534,0.141246 -0.208926,0.170672 -0.965176,0.244236 -1.627263,1.388912 -1.509558,2.610095 0.07062,0.756251 0.391367,1.400682 0.956348,1.918582 l 0.232466,0.21481 -0.250122,-0.0206 c -2.077483,-0.147131 -3.807737,-0.5179 -5.487968,-1.179987 -0.226581,-0.08828 -0.715054,-0.311916 -1.088765,-0.494358 -0.891611,-0.438449 -1.497789,-0.806275 -2.245212,-1.359486 -0.391367,-0.288376 -0.447276,-0.256007 -0.07062,0.04414 1.191757,0.953406 2.795479,1.809705 4.408029,2.359973 1.647862,0.562039 3.248642,0.873955 5.308469,1.035799 0.635604,0.04708 2.827848,0.04708 3.47228,0 1.300633,-0.100049 2.716029,-0.285433 3.569386,-0.464932 l 0.208925,-0.04414 0.158901,0.155959 c 0.582637,0.573809 0.871012,1.486018 0.776849,2.471792 -0.08828,0.941635 -0.464932,1.747911 -1.124077,2.407055 -1.427166,1.433051 -3.519362,1.421281 -4.358006,-0.0206 -0.353113,-0.612063 -0.361941,-1.456592 -0.0206,-2.14222 0.47376,-0.944578 1.515444,-1.527215 2.371744,-1.324175 0.514957,0.120647 0.888668,0.470818 1.038741,0.962234 0.08534,0.28249 0.06768,0.685628 -0.04414,0.976946 -0.411965,1.079938 -1.777336,1.435994 -2.268752,0.591465 -0.229524,-0.39431 -0.126532,-0.912209 0.253064,-1.26238 0.179499,-0.167729 0.300146,-0.217753 0.703284,-0.306031 0.117704,-0.02648 0.12359,-0.02943 0.03825,-0.03237 -0.141245,-0.0059 -0.388425,0.05297 -0.556153,0.132418 -0.200098,0.09416 -0.432564,0.347228 -0.550268,0.591464 -0.08534,0.179499 -0.09416,0.226581 -0.09416,0.464933 0,0.223638 0.01177,0.291318 0.07945,0.429621 0.144187,0.314859 0.423735,0.520842 0.797447,0.588522 0.670915,0.123589 1.491903,-0.432564 1.756738,-1.191757 0.117704,-0.32663 0.129475,-0.756251 0.03237,-1.068168 -0.05885,-0.194212 -0.229524,-0.470817 -0.388425,-0.626776 -0.509071,-0.500243 -1.338887,-0.582637 -2.101023,-0.208925 -0.812161,0.400195 -1.39774,1.224126 -1.518387,2.136335 -0.150073,1.153503 0.559096,2.251096 1.665517,2.568898 0.52967,0.153016 0.979889,0.158901 1.568411,0.01766 1.074053,-0.25895 2.121622,-1.129962 2.668948,-2.218728 0.297203,-0.594407 0.432563,-1.168216 0.435506,-1.853844 0,-0.929865 -0.214811,-1.612551 -0.694456,-2.18636 -0.06474,-0.07651 -0.111819,-0.144187 -0.105934,-0.150073 0.0059,-0.0059 0.19127,-0.05297 0.409023,-0.102991 2.242269,-0.523785 4.322694,-1.34183 5.699835,-2.239326 0.185385,-0.12359 0.244237,-0.144188 0.467875,-0.176557 0.373712,-0.05297 1.179987,-0.02354 1.565469,0.05591 0.926922,0.194212 1.727312,0.550268 2.433538,1.076995 0.341343,0.256007 0.882783,0.806275 1.156446,1.174101 0.567924,0.768022 0.950463,1.653747 1.112307,2.577727 0.08239,0.467875 0.07651,1.288863 -0.01177,1.730254 -0.241294,1.1947 -0.894553,2.106909 -1.874442,2.60421 -0.279548,0.141246 -0.679743,0.27072 -0.988717,0.31486 -0.303089,0.04414 -0.859243,0.02354 -1.159389,-0.0412 -0.829816,-0.185384 -1.61255,-0.691513 -2.136335,-1.388912 -0.844529,-1.124077 -1.029913,-2.495333 -0.479645,-3.545845 0.285433,-0.54144 0.803332,-0.953406 1.394797,-1.103479 0.25895,-0.06768 0.747423,-0.06768 1.015201,0 0.467875,0.117705 0.962233,0.429621 1.300633,0.820989 0.488473,0.567923 0.709169,1.415395 0.54144,2.077482 -0.197154,0.782734 -0.871012,1.265322 -1.609607,1.159389 -0.697399,-0.100049 -1.285921,-0.712112 -1.380084,-1.438937 -0.01766,-0.129475 0.01177,-0.523784 0.06179,-0.80039 0.01177,-0.05297 0.0059,-0.09416 -0.01177,-0.09416 -0.01471,0 -0.03531,0.05002 -0.04708,0.108876 -0.0088,0.06179 -0.03825,0.223639 -0.0618,0.361941 -0.153015,0.844529 0.417851,1.72437 1.285921,1.992147 0.250122,0.07945 0.66503,0.06474 0.932807,-0.02943 0.73271,-0.258949 1.162331,-0.982831 1.112307,-1.874442 -0.08239,-1.468363 -1.388912,-2.67189 -2.79548,-2.580669 -1.742025,0.114762 -2.716029,1.936237 -2.089253,3.904843 0.105934,0.32663 0.370769,0.850414 0.58558,1.153503 0.241294,0.3384 0.712111,0.80039 1.041684,1.021086 0.709169,0.47376 1.371256,0.685628 2.133392,0.685628 0.635604,0 1.121134,-0.114762 1.662575,-0.391367 0.94752,-0.485531 1.636091,-1.365371 1.945065,-2.492391 l 0.06474,-0.241294 0.05591,0.153016 c 0.07062,0.205983 0.244236,0.456105 0.397252,0.570866 0.138303,0.105934 0.323687,0.150073 0.491416,0.117705 0.244237,-0.04708 0.588522,-0.38254 0.570866,-0.559096 -0.0088,-0.09122 -0.0088,-0.09122 -0.226581,-0.111819 -0.279548,-0.02354 -0.570866,-0.164786 -0.829816,-0.403138 -0.344285,-0.314859 -0.344285,-0.314859 -0.361941,-0.944578 -0.01766,-0.709169 -0.105934,-1.212355 -0.314859,-1.827361 -0.66503,-1.959778 -2.159876,-3.466394 -4.057859,-4.099055 -0.59735,-0.200098 -1.309462,-0.341343 -1.706714,-0.341343 -0.09711,0 -0.176556,-0.0088 -0.176556,-0.01766 0,-0.0088 0.120647,-0.14713 0.267777,-0.306031 2.716029,-2.936725 3.86659,-7.265304 3.013233,-11.329049 -0.361941,-1.712599 -1.100536,-3.351632 -2.056885,-4.540447 -0.211868,-0.267777 -0.238351,-0.376654 -0.235409,-0.991659 0.0029,-0.438449 0.0088,-0.512015 0.08239,-0.747423 0.129474,-0.432564 0.238351,-0.623834 0.494358,-0.873956 0.25895,-0.253064 0.285433,-0.335457 0.150073,-0.432563 -0.217753,-0.153016 -0.762136,-0.208925 -1.038741,-0.108877 -0.46199,0.164786 -0.656202,0.467875 -0.656202,1.015201 0,0.332515 0.0618,0.600292 0.211868,0.918094 l 0.108876,0.223638 -0.09416,-0.07651 c -0.535535,-0.45319 -0.709149,-0.591493 -0.926902,-0.741566 L 79.711796,18.087092 79.69414,17.84874 c -0.02943,-0.464932 0.05885,-1.094651 0.220696,-1.55664 0.170672,-0.479646 0.429621,-0.850415 0.823931,-1.165274 0.13536,-0.111819 0.155958,-0.182442 0.08534,-0.297203 -0.138303,-0.226581 -0.791562,-0.388425 -1.268265,-0.31486 z"
       id="path12943"
       style="fill:#bbbbbb;fill-opacity:1;stroke:none;stroke-width:0.364954;stroke-miterlimit:4;stroke-dasharray:none" />
    <path
       d="m 83.239986,20.694244 c -0.403138,0.197155 -0.256008,0.835702 0.194212,0.841587 0.27072,0.0029 0.459047,-0.182442 0.459047,-0.456105 0,-0.323687 -0.353113,-0.532612 -0.653259,-0.385482 z"
       id="path12945"
       style="fill:#bbbbbb;fill-opacity:1;stroke:none;stroke-width:0.364954;stroke-miterlimit:4;stroke-dasharray:none" />
    <path
       d="m 84.146309,21.912485 c -0.132417,0.02943 -0.323687,0.226581 -0.326629,0.341343 -0.0059,0.182441 0.01177,0.261892 0.07945,0.356055 0.264835,0.347228 0.806275,0.173614 0.806275,-0.258949 0,-0.291319 -0.264835,-0.500244 -0.559096,-0.438449 z"
       id="path12947"
       style="fill:#bbbbbb;fill-opacity:1;stroke:none;stroke-width:0.364954;stroke-miterlimit:4;stroke-dasharray:none" />
    <path
       d="m 84.264014,23.504437 c -0.264835,0.13536 -0.335458,0.467875 -0.144188,0.685628 0.111819,0.12359 0.232466,0.173614 0.391367,0.155958 0.523785,-0.05885 0.526727,-0.815103 0.0029,-0.891611 -0.08828,-0.01471 -0.150073,-0.0029 -0.250122,0.05002 z"
       id="path12949"
       style="fill:#bbbbbb;fill-opacity:1;stroke:none;stroke-width:0.364954;stroke-miterlimit:4;stroke-dasharray:none" />
    <path
       d="m 90.646535,24.140041 c -0.411966,0.138302 -0.841587,0.411965 -1.165274,0.750365 -0.500243,0.520842 -0.873955,1.191757 -1.656689,2.963208 -0.779792,1.771452 -1.188815,2.489448 -1.718484,3.019118 -0.3384,0.3384 -0.58558,0.482588 -0.944578,0.553211 l -0.205983,0.0412 0.220696,0.0088 c 1.641976,0.06474 4.237358,-0.562038 5.664524,-1.365371 0.370769,-0.208925 0.921037,-0.632661 1.250609,-0.962233 1.244724,-1.241782 1.418338,-2.583612 0.494359,-3.860705 -0.438449,-0.606177 -0.762136,-0.921036 -1.112307,-1.088765 -0.247179,-0.120647 -0.573809,-0.141245 -0.826873,-0.05885 z"
       id="path12951"
       style="fill:#bbbbbb;fill-opacity:1;stroke:none;stroke-width:0.364954;stroke-miterlimit:4;stroke-dasharray:none" />
    <path
       d="m 74.244427,24.825669 c -0.361941,0.05297 -0.564981,0.161843 -0.667973,0.358998 -0.05885,0.108877 -0.06768,0.164786 -0.06768,0.476703 0.0029,0.329572 0.0088,0.367826 0.09416,0.567924 0.120647,0.27072 0.3384,0.606177 0.773906,1.182929 0.420793,0.562038 0.567924,0.776849 0.682686,1.006373 0.161843,0.326629 0.208925,0.594407 0.141245,0.776849 -0.05002,0.132417 -0.0088,0.114761 0.08828,-0.03531 0.267778,-0.423736 0.594408,-1.244724 0.747423,-1.889155 0.100049,-0.417851 0.126532,-0.703284 0.100049,-1.082881 -0.05591,-0.81216 -0.391367,-1.265322 -1.0152,-1.365371 -0.203041,-0.03531 -0.632662,-0.03237 -0.876898,0.0029 z"
       id="path12953"
       style="fill:#bbbbbb;fill-opacity:1;stroke:none;stroke-width:0.364954;stroke-miterlimit:4;stroke-dasharray:none" />
    <path
       d="m 92.956484,28.783479 c -0.20304,0.100049 -0.244237,0.373712 -0.08239,0.544383 0.28249,0.294261 0.723882,-0.05885 0.512014,-0.409023 -0.05591,-0.09122 -0.208926,-0.182442 -0.300146,-0.182442 -0.0206,0 -0.07945,0.0206 -0.129475,0.04708 z"
       id="path12955"
       style="fill:#bbbbbb;fill-opacity:1;stroke:none;stroke-width:0.364954;stroke-miterlimit:4;stroke-dasharray:none" />
    <path
       d="m 92.244372,29.895786 c -0.235409,0.129475 -0.238351,0.479645 -0.0059,0.617948 0.138303,0.07945 0.279548,0.0618 0.40608,-0.05297 0.100049,-0.09122 0.108877,-0.114762 0.108877,-0.253065 0,-0.138302 -0.0088,-0.161843 -0.108877,-0.253064 -0.120647,-0.108877 -0.27072,-0.132418 -0.400195,-0.05885 z"
       id="path12957"
       style="fill:#bbbbbb;fill-opacity:1;stroke:none;stroke-width:0.364954;stroke-miterlimit:4;stroke-dasharray:none" />
    <path
       d="m 80.026655,30.281268 c 0,0.138302 -0.132417,0.385482 -0.300146,0.562038 -0.379597,0.403138 -0.944578,0.673858 -2.304063,1.100536 -1.085824,0.341343 -1.415396,0.46199 -1.868558,0.682686 -0.403137,0.197155 -0.441391,0.223638 -0.694456,0.479645 -0.347228,0.350171 -0.497301,0.629719 -0.497301,0.926922 0,0.167729 0.01766,0.226581 0.114762,0.429621 0.09711,0.197155 0.173614,0.288376 0.485531,0.603236 0.317801,0.317801 0.40608,0.388424 0.612062,0.491415 0.311917,0.153016 0.509072,0.194213 0.876898,0.173614 0.217753,-0.0088 0.350171,-0.03237 0.503187,-0.09122 0.750365,-0.276605 1.453649,-0.938692 2.0304,-1.906811 0.706227,-1.188814 1.168217,-2.524759 1.121135,-3.242756 -0.0088,-0.126532 -0.02943,-0.244237 -0.04708,-0.261892 -0.02354,-0.02354 -0.03237,-0.0088 -0.03237,0.05297 z"
       id="path12959"
       style="fill:#bbbbbb;fill-opacity:1;stroke:none;stroke-width:0.364954;stroke-miterlimit:4;stroke-dasharray:none" />
    <path
       d="m 91.029074,30.393087 c -0.141245,0.09416 -0.200097,0.267777 -0.141245,0.420793 0.100049,0.264835 0.414908,0.32663 0.606178,0.117704 0.291318,-0.317801 -0.108877,-0.779791 -0.464933,-0.538497 z"
       id="path12961"
       style="fill:#bbbbbb;fill-opacity:1;stroke:none;stroke-width:0.364954;stroke-miterlimit:4;stroke-dasharray:none" />
    <path
       d="m 88.975132,32.505881 c -0.573809,0.111819 -1.197642,0.438449 -2.671889,1.403625 -1.188815,0.779791 -1.72437,1.065225 -2.298179,1.230011 -0.238351,0.06768 -0.314859,0.07651 -0.573809,0.06474 -0.229523,-0.0088 -0.335457,-0.02648 -0.447277,-0.07651 -0.138302,-0.06179 -0.144187,-0.06474 -0.08828,-0.0088 0.19127,0.19127 1.094651,0.667973 1.750853,0.92398 1.171159,0.46199 2.248154,0.706226 3.075028,0.703284 1.577239,-0.0029 2.654234,-0.591465 3.01029,-1.639034 0.07651,-0.226581 0.07945,-0.25895 0.07945,-0.823931 -0.0029,-0.503186 -0.01177,-0.626776 -0.06768,-0.844529 -0.141245,-0.573809 -0.370769,-0.820988 -0.856299,-0.923979 -0.211868,-0.04414 -0.706227,-0.05003 -0.91221,-0.0088 z"
       id="path12963"
       style="fill:#bbbbbb;fill-opacity:1;stroke:none;stroke-width:0.364954;stroke-miterlimit:4;stroke-dasharray:none" />
    <path
       d="m 63.88644,34.892338 c -0.182442,0.100048 -0.217754,0.323687 -0.07651,0.467875 0.235408,0.232466 0.629718,-0.06474 0.47376,-0.358999 -0.06474,-0.117704 -0.273663,-0.176557 -0.397252,-0.108876 z"
       id="path12965"
       style="fill:#bbbbbb;fill-opacity:1;stroke:none;stroke-width:0.364954;stroke-miterlimit:4;stroke-dasharray:none" />
    <path
       d="m 63.162557,35.795719 c -0.14713,0.150073 -0.09122,0.409023 0.102992,0.47376 0.132417,0.0412 0.235409,0.01177 0.32663,-0.09416 0.161843,-0.194212 0.03531,-0.464932 -0.220696,-0.464932 -0.09711,0 -0.141245,0.01766 -0.208926,0.08534 z"
       id="path12967"
       style="fill:#bbbbbb;fill-opacity:1;stroke:none;stroke-width:0.364954;stroke-miterlimit:4;stroke-dasharray:none" />
    <path
       d="m 63.236123,36.840345 c -0.300146,0.132418 -0.217753,0.547326 0.105934,0.547326 0.320744,0 0.411965,-0.453162 0.111819,-0.556153 -0.111819,-0.03825 -0.105934,-0.03825 -0.217753,0.0088 z"
       id="path12969"
       style="fill:#bbbbbb;fill-opacity:1;stroke:none;stroke-width:0.364954;stroke-miterlimit:4;stroke-dasharray:none" />
    <path
       d="m 89.466548,36.934509 c -0.235409,0.126532 -0.220695,0.500244 0.02354,0.615005 0.129475,0.06179 0.220696,0.05591 0.3384,-0.02354 0.138303,-0.09122 0.194213,-0.267777 0.132418,-0.414908 -0.07945,-0.191269 -0.31486,-0.276605 -0.494359,-0.176556 z"
       id="path12971"
       style="fill:#bbbbbb;fill-opacity:1;stroke:none;stroke-width:0.364954;stroke-miterlimit:4;stroke-dasharray:none" />
    <path
       d="m 87.059493,37.205229 c -0.14713,0.07062 -0.223638,0.238351 -0.179499,0.385482 0.114762,0.388424 0.682686,0.323687 0.679743,-0.07651 0,-0.117704 -0.05885,-0.217753 -0.173614,-0.294261 -0.120647,-0.08239 -0.19127,-0.08534 -0.32663,-0.01471 z"
       id="path12973"
       style="fill:#bbbbbb;fill-opacity:1;stroke:none;stroke-width:0.364954;stroke-miterlimit:4;stroke-dasharray:none" />
    <path
       d="m 88.245365,37.475949 c -0.117704,0.07062 -0.155958,0.141245 -0.155958,0.285433 0,0.250122 0.217753,0.411966 0.453162,0.332515 0.141245,-0.04414 0.223638,-0.167729 0.223638,-0.329572 0,-0.147131 -0.05591,-0.241294 -0.176556,-0.303089 -0.114762,-0.05885 -0.232467,-0.05591 -0.344286,0.01471 z"
       id="path12975"
       style="fill:#bbbbbb;fill-opacity:1;stroke:none;stroke-width:0.364954;stroke-miterlimit:4;stroke-dasharray:none" />
    <path
       d="m 86.729921,45.473963 c -0.19127,0.114762 -0.214811,0.385482 -0.05002,0.538498 0.232466,0.21481 0.585579,0.07062 0.585579,-0.238352 0,-0.267777 -0.308974,-0.441391 -0.535555,-0.300146 z"
       id="path12977"
       style="fill:#bbbbbb;fill-opacity:1;stroke:none;stroke-width:0.364954;stroke-miterlimit:4;stroke-dasharray:none" />
    <path
       d="m 71.810888,46.003633 c -0.09122,0.05297 -0.170671,0.197155 -0.170671,0.306031 0,0.108877 0.108876,0.25895 0.226581,0.308974 0.208925,0.08534 0.441391,-0.05297 0.470817,-0.279548 0.03825,-0.288375 -0.279547,-0.491415 -0.526727,-0.335457 z"
       id="path12979"
       style="fill:#bbbbbb;fill-opacity:1;stroke:none;stroke-width:0.364954;stroke-miterlimit:4;stroke-dasharray:none" />
    <path
       d="m 69.412661,46.25964 c -0.176556,0.07651 -0.238351,0.323687 -0.126532,0.506129 0.0618,0.105934 0.241294,0.176556 0.358998,0.14713 0.294261,-0.07651 0.364884,-0.461989 0.114762,-0.629718 -0.114762,-0.07651 -0.211868,-0.08239 -0.347228,-0.02354 z"
       id="path12981"
       style="fill:#bbbbbb;fill-opacity:1;stroke:none;stroke-width:0.364954;stroke-miterlimit:4;stroke-dasharray:none" />
    <path
       d="m 85.897162,46.46268 c -0.150073,0.06474 -0.205982,0.153016 -0.205982,0.317802 0,0.129475 0.01177,0.155958 0.108876,0.247179 0.08239,0.07356 0.138303,0.100049 0.214811,0.100049 0.291318,0 0.459047,-0.279548 0.308974,-0.520842 C 86.23262,46.456795 86.050178,46.395 85.897162,46.46268 Z"
       id="path12983"
       style="fill:#bbbbbb;fill-opacity:1;stroke:none;stroke-width:0.364954;stroke-miterlimit:4;stroke-dasharray:none" />
    <path
       d="m 70.592648,46.536245 c -0.173614,0.105934 -0.205983,0.373712 -0.06474,0.523785 0.223639,0.238351 0.59735,0.08239 0.59735,-0.250122 0,-0.111819 -0.01471,-0.141245 -0.108876,-0.229524 -0.129475,-0.117704 -0.276606,-0.132417 -0.423736,-0.04414 z"
       id="path12985"
       style="fill:#bbbbbb;fill-opacity:1;stroke:none;stroke-width:0.364954;stroke-miterlimit:4;stroke-dasharray:none" />
    <path
       d="m 84.593586,47.039432 c -0.05297,0.03237 -0.117704,0.105934 -0.144188,0.161843 -0.04414,0.09416 -0.04708,0.117705 -0.0088,0.229524 0.132418,0.379596 0.676801,0.311916 0.676801,-0.08534 0,-0.144188 -0.08239,-0.264835 -0.223639,-0.323687 -0.132417,-0.05591 -0.185384,-0.05297 -0.300146,0.01766 z"
       id="path12987"
       style="fill:#bbbbbb;fill-opacity:1;stroke:none;stroke-width:0.364954;stroke-miterlimit:4;stroke-dasharray:none" />
    <path
       d="m 33.199618,2.6976527 c -0.202968,0.055729 -0.79995,0.3661475 -1.110379,0.5810616 -0.09153,0.063674 -0.298482,0.2427711 -0.457685,0.4019677 -0.222869,0.2228629 -0.330323,0.3701218 -0.445737,0.608904 -0.28257,0.5810652 -0.405949,1.4248025 -0.342272,2.2924004 0.06767,0.8954695 0.302471,1.4685678 0.811892,1.9700329 0.445743,0.441766 0.939247,0.6128966 1.771039,0.6128966 0.23481,0 0.501462,-0.027846 0.696471,-0.075619 0.401966,-0.095461 1.098444,-0.2308334 1.341213,-0.2586867 0.179092,-0.019926 0.310429,0.039827 0.254717,0.1273543 -0.008,0.015912 0.02386,0.2984886 0.07163,0.6288195 0.05176,0.3263456 0.115414,0.744233 0.139291,0.931294 0.08358,0.592981 0.167162,0.756159 0.394007,0.756159 0.08358,0 0.07562,0.01201 -0.07561,0.155211 -0.135315,0.131344 -0.159192,0.17512 -0.139291,0.270632 0.01193,0.05971 0.03187,0.191043 0.04374,0.290529 0.01193,0.0995 0.05573,0.445759 0.103472,0.776082 0.119397,0.879539 0.0796,1.970029 -0.143272,4.079358 -0.03585,0.318375 -0.08756,0.728306 -0.115421,0.915355 -0.03181,0.187046 -0.08755,0.561165 -0.123366,0.835763 -0.03585,0.274617 -0.0796,0.573113 -0.103485,0.664644 -0.01988,0.09548 -0.06368,0.425847 -0.0995,0.736273 -0.03187,0.314404 -0.07561,0.65668 -0.09153,0.768112 -0.01988,0.10746 -0.08358,0.50146 -0.139303,0.875568 -0.05971,0.37014 -0.13929,0.883536 -0.183067,1.134259 -0.143273,0.839748 -0.167156,1.178039 -0.09551,1.317335 0.07562,0.151233 0.04772,0.234818 -0.07562,0.234818 -0.151238,0 -0.254711,0.155208 -0.362165,0.537275 -0.163174,0.581054 -0.370125,1.759097 -0.409926,2.328213 l -0.02386,0.342269 0.127356,0.107457 c 0.07164,0.05971 0.147249,0.10746 0.16715,0.10746 0.103478,0 0.0159,0.06766 -0.143273,0.111425 -0.103479,0.02785 -0.202975,0.08357 -0.234817,0.135321 -0.06766,0.103479 -0.155208,0.636768 -0.222869,1.325301 -0.02783,0.262658 -0.08755,0.780049 -0.13929,1.154149 -0.05175,0.370126 -0.115414,0.871587 -0.139297,1.114358 -0.02386,0.23879 -0.06368,0.561161 -0.08358,0.716383 -0.02386,0.151226 -0.08357,0.644735 -0.135315,1.094454 -0.15919,1.384993 -0.294505,2.268521 -0.417877,2.766005 -0.167156,0.668614 -0.226858,1.050673 -0.294518,1.850623 -0.03188,0.382071 -0.05971,0.724342 -0.05971,0.756178 0,0.03186 -0.01199,0.489519 -0.0279,1.014853 -0.05175,1.763082 0.115414,2.686408 0.489527,2.686408 0.119397,0 0.159191,0.0995 0.07561,0.183083 -0.262669,0.262661 -0.374107,1.002916 -0.242769,1.59593 0.266652,1.16609 0.839745,2.284422 1.619801,3.15602 0.788015,0.875558 1.257635,1.178043 2.340161,1.500399 l 0.338282,0.0995 1.43275,-0.02387 c 0.788009,-0.01197 1.691444,-0.03982 2.009826,-0.05971 0.975065,-0.06766 2.085444,-0.119384 3.721169,-0.183068 0.30644,-0.01201 0.943223,-0.04778 1.412843,-0.07952 0.469633,-0.03182 1.022825,-0.06367 1.221817,-0.06765 l 0.370137,-0.01201 -0.01994,0.226844 c -0.01988,0.195017 -0.01199,0.230834 0.03983,0.230834 0.03983,0 0.05175,0.01989 0.03585,0.04778 -0.01982,0.02785 -0.03585,0.131344 -0.03983,0.230845 -0.0044,0.09949 -0.01982,0.218892 -0.03585,0.266639 -0.02392,0.06766 -0.01199,0.09153 0.03585,0.09153 0.03585,0 0.06368,0.02785 0.06368,0.05971 0,0.07172 0.103466,0.07968 0.143267,0.01193 0.01982,-0.02785 0.03983,-0.01193 0.06368,0.04778 l 0.03181,0.09154 0.0995,-0.09154 c 0.05573,-0.05175 0.0995,-0.07172 0.0995,-0.04778 0,0.08357 0.111444,0.05176 0.195016,-0.05573 0.05971,-0.07968 0.08358,-0.08759 0.08358,-0.03983 0,0.09546 0.09154,0.07967 0.198992,-0.03591 l 0.09551,-0.103475 0.04374,0.08761 c 0.04374,0.07967 0.04772,0.07967 0.167163,-0.05573 0.09551,-0.107454 0.135314,-0.127355 0.171133,-0.09547 0.03585,0.03591 0.06368,0.02785 0.119396,-0.04374 0.03983,-0.04765 0.09153,-0.08761 0.115414,-0.08761 0.02386,0 0.04374,-0.01201 0.04374,-0.03186 0,-0.03186 0.191033,-0.127354 0.262669,-0.127354 0.02783,0 0.0995,-0.05971 0.16715,-0.135307 l 0.11542,-0.135321 0.06766,0.139303 c 0.0438,0.09153 0.08756,0.131325 0.123373,0.115413 0.03585,-0.01186 0.08756,0.03182 0.143273,0.123373 l 0.08756,0.143273 0.07163,-0.0876 0.07164,-0.0876 0.05175,0.07968 c 0.06766,0.107453 0.0995,0.103461 0.163173,-0.01993 l 0.05573,-0.107449 0.06767,0.09547 c 0.06765,0.09153 0.06765,0.09546 0.123373,0.01993 0.03187,-0.0438 0.05971,-0.103475 0.05971,-0.131328 0,-0.07968 0.05971,-0.06368 0.202974,0.05971 0.08756,0.07172 0.183074,0.111432 0.290529,0.115413 0.09153,0.0038 0.238793,0.01993 0.334306,0.03584 0.143273,0.01993 0.18705,0.0073 0.306447,-0.07951 0.147256,-0.11542 0.445743,-0.258705 0.529321,-0.262683 0.02386,0 0.04772,0.0438 0.04772,0.0995 0,0.05573 0.02783,0.111438 0.05971,0.123372 0.03585,0.01591 0.05971,0.07562 0.05971,0.159204 0,0.15123 0.02386,0.163171 0.155221,0.07171 0.07561,-0.05573 0.0995,-0.05573 0.123379,-0.01197 0.01994,0.02785 0.02386,0.06765 0.01584,0.08357 -0.04772,0.07562 0.09949,0.02387 0.183074,-0.06766 0.09552,-0.09949 0.18705,-0.139284 0.135308,-0.05175 -0.01994,0.03186 0,0.03591 0.05573,0.02387 0.05175,-0.01591 0.0796,-0.0073 0.06368,0.01201 -0.03976,0.06367 -0.05971,0.322364 -0.02386,0.298489 0.01994,-0.01201 0.03187,0.155218 0.02784,0.378088 -0.01199,0.342265 -0.0044,0.39003 0.04772,0.350218 0.04771,-0.0438 0.05175,-0.03186 0.03187,0.05573 -0.01584,0.05971 -0.01584,0.155207 -0.0044,0.210921 0.02386,0.08358 0.03983,0.09548 0.08358,0.05573 0.04772,-0.03982 0.05176,-0.02387 0.03181,0.09546 -0.01199,0.07561 -0.008,0.171138 0.0044,0.210933 0.02784,0.06368 0.03585,0.05971 0.103473,-0.02785 l 0.07959,-0.09948 v 0.10745 c 0,0.131332 0.05175,0.167156 0.159198,0.111439 0.06766,-0.03591 0.07959,-0.03182 0.07959,0.03982 0,0.111439 0.05175,0.09951 0.218892,-0.0438 0.107455,-0.09546 0.151232,-0.115413 0.19501,-0.07967 0.04374,0.03591 0.07562,0.01591 0.163173,-0.09154 0.05971,-0.07562 0.131344,-0.127361 0.155215,-0.119402 0.05175,0.01996 0.222875,-0.155211 0.222875,-0.234811 0,-0.03591 0.01199,-0.03591 0.03585,0.0038 0.02386,0.03982 0.05573,0.02387 0.131338,-0.07164 l 0.0995,-0.127351 0.09551,0.191035 c 0.05175,0.107461 0.115414,0.214914 0.135314,0.23879 0.03585,0.0438 0.175122,0.214917 0.318395,0.394008 0.04772,0.05971 0.07164,0.06766 0.08755,0.02785 0.01597,-0.03983 0.03585,-0.02785 0.06767,0.03591 0.02386,0.04766 0.0796,0.107457 0.119396,0.131332 0.04374,0.02394 0.119396,0.08761 0.171133,0.143274 0.07562,0.08357 0.09551,0.09153 0.127361,0.03983 0.03585,-0.05176 0.04772,-0.04778 0.09949,0.01989 0.03585,0.0438 0.06368,0.09153 0.06368,0.107464 0,0.01591 0.03983,0.03982 0.09153,0.05175 0.04772,0.01591 0.127362,0.07561 0.179098,0.135321 0.06368,0.06765 0.0995,0.08759 0.111437,0.05573 0.01584,-0.03186 0.05971,-0.04386 0.123379,-0.02785 0.09153,0.02387 0.09949,0.01591 0.08357,-0.05573 -0.01994,-0.07561 -0.01199,-0.08358 0.07164,-0.06368 0.107461,0.02785 0.123372,-0.01989 0.05175,-0.151241 -0.03983,-0.07164 -0.03585,-0.07968 0.01994,-0.05971 0.09154,0.03584 0.127362,-0.07164 0.06766,-0.195009 -0.03976,-0.09153 -0.03585,-0.0995 0.03187,-0.07561 0.103466,0.03186 0.127349,-0.02387 0.08358,-0.175123 -0.03181,-0.119403 -0.02783,-0.127362 0.05175,-0.115414 0.05971,0.0073 0.08358,-0.0073 0.07561,-0.04778 -0.03983,-0.159205 -0.03983,-0.278593 -0.008,-0.278593 0.03976,0 0.01994,-0.569124 -0.01994,-0.636778 -0.01199,-0.02387 -0.0038,-0.03982 0.01994,-0.03982 0.02783,0 0.02386,-0.03983 -0.01199,-0.111438 -0.08755,-0.167157 -0.04772,-0.206958 0.15522,-0.179091 0.135321,0.01591 0.175116,0.01201 0.175116,-0.03186 0,-0.04386 0.04374,-0.05175 0.179097,-0.04386 0.187051,0.01591 0.23481,-0.0397 0.131326,-0.143273 -0.03585,-0.03591 -0.01982,-0.04778 0.08358,-0.04778 0.135314,0 0.135314,0.0038 0.05573,-0.191028 -0.01199,-0.03182 0.01584,-0.04778 0.08358,-0.04778 0.131325,0 0.131325,-0.07562 0,-0.2189 -0.09154,-0.0995 -0.09551,-0.10745 -0.01982,-0.0876 0.131326,0.03186 0.0995,-0.05573 -0.07562,-0.242764 -0.09153,-0.09154 -0.13929,-0.167171 -0.115414,-0.167171 0.02783,0 0.008,-0.0438 -0.04374,-0.09949 l -0.09551,-0.103472 0.298487,0.0239 c 0.811892,0.06367 0.788009,0.05573 0.955165,0.206943 l 0.155221,0.139303 0.155209,-0.05971 c 0.08756,-0.03591 0.262669,-0.07562 0.390024,-0.0876 0.127356,-0.01201 0.294512,-0.03182 0.374107,-0.0438 0.16715,-0.02387 1.150187,0.111435 1.488469,0.210943 0.131332,0.03584 0.318382,0.06765 0.417884,0.06765 0.155215,0.0038 0.187051,-0.01201 0.262664,-0.127361 0.05175,-0.07164 0.09552,-0.147256 0.103484,-0.171138 0.0438,-0.135314 1.365084,-0.151234 2.491388,-0.02785 0.903428,0.09556 1.755114,0.0995 2.15708,0.0073 0.378084,-0.08751 0.947206,-0.374114 1.205893,-0.6129 0.28257,-0.258698 0.457679,-0.497483 0.656677,-0.895455 0.226851,-0.453714 0.314412,-0.776086 0.405949,-1.480516 0.07959,-0.592996 0.07959,-0.640761 0.01988,-1.054666 -0.107454,-0.712405 -0.282563,-1.090487 -0.688512,-1.468564 -0.238787,-0.222867 -0.250728,-0.242775 -0.191039,-0.31043 0.103478,-0.111435 0.07959,-0.274603 -0.05573,-0.401964 -0.07163,-0.06766 -0.103466,-0.12338 -0.07959,-0.139303 0.08756,-0.05573 0.03983,-0.230823 -0.103466,-0.362166 -0.175115,-0.167153 -0.262675,-0.171127 -0.386048,-0.0073 l -0.0995,0.123373 -0.06368,-0.123373 c -0.03585,-0.06766 -0.09552,-0.143273 -0.135314,-0.163182 -0.167156,-0.0876 -0.44575,0.07562 -0.44575,0.258694 0,0.06766 -0.02783,0.111432 -0.07959,0.12338 -0.03983,0.01197 -0.103472,0.06368 -0.135315,0.111435 -0.05971,0.09154 -0.06368,0.09154 -0.191033,0.02785 -0.07164,-0.03591 -0.20695,-0.06367 -0.302476,-0.06766 -0.115414,0 -0.191027,-0.02387 -0.222863,-0.06765 -0.07561,-0.103468 -0.226857,-0.147252 -0.354206,-0.09949 -0.09553,0.03182 -0.127362,0.02387 -0.195015,-0.0438 l -0.0796,-0.07968 0.119396,-0.02785 c 0.16318,-0.03591 0.254711,-0.147251 0.274611,-0.34625 0.02784,-0.242782 -0.07959,-0.370129 -0.362165,-0.433806 -0.159197,-0.03591 -0.226852,-0.07172 -0.254704,-0.139296 -0.05573,-0.115409 -0.171139,-0.15124 -0.390025,-0.115409 -0.115414,0.01591 -0.19104,0.05175 -0.214916,0.103472 -0.02392,0.03983 -0.07561,0.07561 -0.11542,0.07561 -0.03983,0 -0.09551,0.02785 -0.123373,0.05971 -0.07164,0.08358 -0.119396,0.07561 -0.119396,-0.02785 0,-0.131343 -0.187051,-0.350235 -0.302471,-0.350235 -0.07561,0 -0.111431,-0.03186 -0.163173,-0.151234 -0.127349,-0.314411 -0.294506,-0.370118 -0.493497,-0.167156 -0.0995,0.09949 -0.135321,0.111439 -0.198999,0.07562 -0.0438,-0.01993 -0.127355,-0.03591 -0.187056,-0.02785 -0.08754,0.0073 -0.115408,0.03982 -0.143267,0.159197 -0.02783,0.115413 -0.01994,0.175109 0.04778,0.314412 0.04778,0.09546 0.07561,0.179086 0.06765,0.187042 -0.0081,0.01201 -0.0796,-0.02785 -0.159204,-0.08759 -0.111419,-0.0876 -0.151226,-0.0995 -0.21888,-0.06368 -0.07164,0.03591 -0.0796,0.03186 -0.0796,-0.05971 0,-0.05971 -0.01193,-0.457685 -0.02392,-0.887503 l -0.02386,-0.784034 0.08358,0.07561 c 0.06765,0.05971 0.09154,0.06368 0.143267,0.0239 0.08358,-0.07164 0.07562,-0.198998 -0.02392,-0.302477 -0.06765,-0.07164 -0.07561,-0.103465 -0.03983,-0.167149 0.08358,-0.155215 0.05175,-0.362166 -0.07163,-0.489513 -0.06368,-0.06368 -0.143273,-0.115421 -0.175115,-0.115421 -0.0438,0 -0.04778,-0.02387 -0.01193,-0.139292 0.04778,-0.151244 0.08357,-0.175119 0.11939,-0.07968 0.01193,0.0397 0.07562,0.05971 0.171139,0.05971 0.08358,0.0038 0.195002,0.02785 0.250734,0.05971 0.210927,0.123373 0.394001,0.01591 0.342265,-0.195009 -0.0159,-0.07164 0,-0.103479 0.07562,-0.135322 0.07561,-0.03591 0.0995,-0.07561 0.0995,-0.163181 0,-0.171124 -0.0796,-0.322368 -0.183074,-0.346247 -0.07561,-0.01996 -0.08358,-0.03982 -0.05971,-0.107446 0.0796,-0.214918 -0.115407,-0.374104 -0.370124,-0.302467 -0.0796,0.0239 -0.163174,0.02785 -0.187051,0.01193 -0.07164,-0.03983 0,-0.374107 0.115414,-0.561164 0.103479,-0.163167 0.107449,-0.167149 0.198986,-0.107453 0.214916,0.14327 0.764132,0.234815 0.764132,0.131336 0,-0.07968 -0.163174,-0.314412 -0.250722,-0.36217 -0.143286,-0.07562 -0.346248,-0.107457 -0.469626,-0.07164 -0.226852,0.06765 -0.250729,0.02785 -0.218893,-0.374114 0.0159,-0.198988 0.03585,-0.533296 0.04778,-0.740255 0.0081,-0.206943 0.0438,-0.585028 0.07164,-0.835774 0.03187,-0.250716 0.0796,-0.680548 0.103472,-0.955161 0.107467,-1.253657 0.167149,-1.691431 0.242775,-1.834708 0.06368,-0.119398 0.06766,-0.167149 0.03187,-0.270628 -0.03585,-0.0995 -0.03187,-0.167156 0.01994,-0.318397 0.03585,-0.111431 0.05176,-0.246749 0.03983,-0.330323 -0.01591,-0.09556 -0.0038,-0.171124 0.03585,-0.234808 0.0438,-0.06368 0.05175,-0.115421 0.02784,-0.155222 -0.01994,-0.03186 -0.02386,-0.111432 -0.01193,-0.179091 0.05175,-0.270624 0.250721,-1.018835 0.294505,-1.098449 0.02386,-0.04778 0.03585,-0.127351 0.02386,-0.179076 -0.0081,-0.05175 0.03585,-0.314415 0.09951,-0.58504 0.111431,-0.481575 0.18705,-0.867608 0.342258,-1.739203 0.04778,-0.250734 0.111444,-0.565146 0.143279,-0.692493 0.03585,-0.131332 0.07562,-0.322371 0.08757,-0.42585 0.02386,-0.18705 0.02386,-0.19501 -0.119403,-0.27858 -0.0796,-0.0438 -0.143273,-0.09154 -0.143273,-0.103479 0,-0.0073 0.05175,-0.08357 0.11939,-0.163175 0.06368,-0.07968 0.171132,-0.28258 0.238799,-0.445748 0.123372,-0.302466 0.171133,-0.616878 0.342259,-2.145141 0.07164,-0.656684 0.119402,-1.026806 0.175115,-1.317331 0.02392,-0.119387 0.08358,-0.561157 0.139303,-0.979051 0.05175,-0.417887 0.123366,-0.935261 0.159191,-1.154153 0.143273,-0.891491 0.202968,-2.06953 0.195003,-3.836587 -0.0038,-0.931282 -0.01994,-1.818792 -0.03983,-1.970025 -0.01591,-0.155215 -0.02784,-0.48952 -0.01995,-0.752196 0.0081,-0.433803 -0.02386,-0.807917 -0.111437,-1.257624 C 65.50408,10.095706 65.452343,9.8449712 65.40459,9.6021892 65.376755,9.4589229 65.332953,9.23606 65.305081,9.1047094 65.257302,8.84603 65.157838,8.3923264 65.102126,8.1694453 65.082181,8.0938305 65.050371,7.9545275 65.026507,7.862997 64.978728,7.6759471 64.831497,7.5326698 64.6723,7.5286918 h -0.103472 l 0.09949,-0.039824 C 65.038442,7.3416091 64.994671,7.0192379 64.453414,5.9406965 63.975822,4.9934984 63.613663,4.448257 63.179855,4.0224067 62.714217,3.5607472 62.499301,3.4532864 62.049575,3.4493084 61.719252,3.4455129 61.715263,3.4455129 61.635667,3.3219541 61.492394,3.0951023 61.030733,2.8762102 60.457634,2.7607898 59.860659,2.6374171 57.166291,2.6095638 56.390224,2.716988 56.227044,2.736951 55.367399,2.77272 54.479888,2.796657 52.840187,2.832569 51.693983,2.884257 50.842297,2.9558499 49.513032,3.0672818 43.90541,3.1468966 42.52042,3.0752524 42.038858,3.0474065 40.534478,3.0115753 39.177347,2.9955757 36.558598,2.9637517 36.459102,2.9596642 34.401511,2.6771861 34.003527,2.625432 33.44237,2.6333843 33.199594,2.6971491 Z M 64.664365,41.767896 c -0.119397,0.07164 -0.171139,0.195017 -0.147256,0.354214 0.01193,0.103464 -0.01995,0.107449 -0.21491,0.02785 -0.139303,-0.05176 -0.139303,-0.103487 -0.01193,-0.151234 0.111438,-0.0438 0.187057,-0.198991 0.175121,-0.358195 -0.01193,-0.198984 0.0038,-0.202969 0.159192,-0.07164 l 0.155208,0.127362 z m -1.667567,-0.0073 c 0.04778,0 0.07562,0.03591 0.08757,0.107453 0.01193,0.06367 0.03585,0.147259 0.05175,0.187046 0.03187,0.07561 0.02784,0.07561 -0.08755,-0.0073 -0.06765,-0.04778 -0.151239,-0.0876 -0.18308,-0.0876 -0.07561,0 -0.123373,-0.131344 -0.08755,-0.238801 0.02386,-0.07172 0.03187,-0.07172 0.08358,-0.01993 0.03585,0.03186 0.09551,0.05971 0.135314,0.05971 z m 2.746098,0.03983 c 0.04778,0.03186 0.0438,0.03982 -0.02783,0.03982 -0.05175,0 -0.09153,-0.01993 -0.09153,-0.03982 0,-0.05176 0.0438,-0.05176 0.119403,0 z m 1.365096,0.632805 c 0.02386,0.09546 0,0.123373 -0.0995,0.123373 -0.08358,0 -0.08755,-0.01591 -0.02386,-0.119395 0.06368,-0.0995 0.09551,-0.0995 0.123373,-0.0038 z m -3.156023,0.123373 c 0,0.01993 -0.0081,0.03983 -0.0159,0.03983 -0.01193,0 -0.03181,-0.01996 -0.0438,-0.03983 -0.01193,-0.02387 -0.0038,-0.03983 0.0159,-0.03983 0.02392,0 0.0438,0.01591 0.0438,0.03983 z"
       id="path4"
       style="fill:#bbbbbb;fill-opacity:1;stroke:none;stroke-width:0.364954;stroke-miterlimit:4;stroke-dasharray:none" />
    <g
       aria-label="The Scroll of"
       id="text1970"
       style="font-size:3.86242px;line-height:1.25;fill:#333333;stroke-width:0.364954">
      <path
         d="M 40.86276,9.1158925 C 40.940008,8.8416607 41.028844,8.779862 41.407361,8.779862 h 0.316718 c 0.01545,0.3321681 0.01931,0.625712 0.01931,1.08534 0,0.579363 -0.0077,0.884494 -0.0309,1.10079 -0.01159,0.0927 -0.0927,0.12746 -0.23947,0.131322 v 0.0927 c 0.12746,-0.01159 0.274232,-0.01159 0.428729,-0.01159 0.154497,0 0.301269,0 0.432591,0.01159 v -0.0927 c -0.150635,-0.0039 -0.231745,-0.03862 -0.243333,-0.131322 -0.02317,-0.216296 -0.0309,-0.521427 -0.0309,-1.10079 0,-0.459628 0.0039,-0.7531719 0.01931,-1.08534 h 0.227883 c 0.22402,0 0.332168,0.00772 0.451903,0.027037 0.0927,0.01545 0.139047,0.084973 0.104285,0.2896815 l 0.135185,-0.00772 c 0.01545,-0.1390472 0.04249,-0.3167185 0.08497,-0.4905274 -0.432591,0.027037 -0.710685,0.038624 -1.1819,0.038624 -0.444178,0 -0.691373,-0.00386 -1.081478,-0.023174 -0.02317,0.1660841 -0.05794,0.3592051 -0.0927,0.5098395 z"
         style="font-family:Seshat;-inkscape-font-specification:Seshat"
         id="path1150" />
      <path
         d="m 44.964645,11.097314 c -0.146772,-0.0039 -0.243333,-0.03862 -0.247195,-0.131322 -0.01159,-0.216296 -0.01159,-0.536877 -0.0039,-0.872907 0.0077,-0.3167187 -0.189259,-0.5137021 -0.52529,-0.5137021 -0.231745,0 -0.417141,0.146772 -0.490527,0.3592051 V 9.8265778 c 0,-0.8188331 0.0077,-1.1085146 0.05407,-1.3866088 l -0.01159,-0.019312 c -0.177672,0.046349 -0.370793,0.061799 -0.629575,0.065661 v 0.09656 c 0.193121,0.00772 0.266507,0.050211 0.278095,0.146772 0.02317,0.1815337 0.0309,0.3939669 0.0309,1.0969273 0,0.7338602 -0.0077,0.9231182 -0.0309,1.1394142 -0.01159,0.0927 -0.104286,0.12746 -0.251058,0.131322 v 0.0927 c 0.12746,-0.01159 0.281957,-0.01159 0.421004,-0.01159 0.139047,0 0.293544,0 0.424866,0.01159 v -0.0927 c -0.150634,-0.0039 -0.243332,-0.03862 -0.25492,-0.131322 -0.02317,-0.216296 -0.0309,-0.405554 -0.0309,-0.521427 0,-0.432591 0.204708,-0.6295745 0.386242,-0.6295745 0.220158,0 0.35148,0.1235975 0.347618,0.4480405 -0.0039,0.432591 -0.01159,0.726135 -0.03862,0.907669 l 0.0077,0.01545 c 0.05794,-0.0077 0.119735,-0.0077 0.185396,-0.0077 0.139047,0 0.251057,0 0.378517,0.01159 z"
         style="font-family:Seshat;-inkscape-font-specification:Seshat"
         id="path1152" />
      <path
         d="m 46.397599,11.074139 0.04249,-0.166084 -0.01545,-0.01545 c -0.115873,0.08111 -0.262645,0.135184 -0.393967,0.135184 -0.386242,0 -0.567776,-0.235607 -0.587088,-0.614124 0.108148,-0.0039 0.208571,-0.0077 0.347618,-0.0077 0.189258,0 0.316718,0 0.471215,0.0039 0.139047,0.0039 0.235608,-0.05021 0.235608,-0.104285 0,-0.4480408 -0.247195,-0.7261351 -0.587088,-0.7261351 -0.482803,0 -0.784071,0.3669299 -0.784071,0.9115311 0,0.451903 0.266506,0.741585 0.745447,0.741585 0.181533,0 0.278094,-0.02704 0.393966,-0.08884 z m -0.950156,-0.795658 c 0.01931,-0.3012688 0.154497,-0.533014 0.36693,-0.533014 0.224021,0 0.36693,0.2278828 0.36693,0.490527 -0.104285,0.03476 -0.23947,0.05021 -0.401692,0.05021 -0.11201,0 -0.22402,-0.0039 -0.332168,-0.0077 z"
         style="font-family:Seshat;-inkscape-font-specification:Seshat"
         id="path1154" />
      <path
         d="m 48.989268,9.0231944 c 0.02317,-0.1158726 0.05021,-0.1969834 0.0927,-0.3051312 -0.08884,-0.092698 -0.278095,-0.1815337 -0.513702,-0.1815337 -0.587088,0 -0.888357,0.3630675 -0.888357,0.772484 0,0.339893 0.216296,0.5407388 0.59095,0.6952355 0.328306,0.135185 0.467353,0.324443 0.467353,0.567776 0,0.293544 -0.212433,0.505977 -0.563913,0.505977 -0.11201,0 -0.258782,-0.0309 -0.355343,-0.119735 -0.03862,-0.03862 -0.05794,-0.0927 -0.05407,-0.166084 l -0.135184,0.0077 c -0.01931,0.115872 -0.04249,0.204708 -0.08111,0.316718 0.12746,0.08497 0.359205,0.131322 0.548463,0.131322 0.533014,0 1.00423,-0.339893 1.00423,-0.838145 0,-0.347618 -0.193121,-0.5639131 -0.633437,-0.7184099 -0.308994,-0.1081478 -0.448041,-0.2703694 -0.448041,-0.4982522 0,-0.266507 0.150634,-0.4866649 0.455766,-0.4866649 0.146772,0 0.262644,0.050211 0.339893,0.1313223 0.03476,0.038624 0.05021,0.1120101 0.03862,0.1853961 z"
         style="font-family:Seshat;-inkscape-font-specification:Seshat"
         id="path1156" />
      <path
         d="m 50.700314,10.015836 c 0.01931,-0.09656 0.04635,-0.2085703 0.08111,-0.297406 -0.123597,-0.084973 -0.293544,-0.1390471 -0.494389,-0.1390471 -0.486665,0 -0.857458,0.3630675 -0.857458,0.8922191 0,0.451903 0.274232,0.760897 0.745447,0.760897 0.181534,0 0.278095,-0.02704 0.393967,-0.08884 l 0.131323,-0.06952 0.04249,-0.166084 -0.01545,-0.01545 c -0.115872,0.08111 -0.262644,0.135184 -0.393966,0.135184 -0.378518,0 -0.587088,-0.258782 -0.587088,-0.672061 0,-0.3630671 0.204708,-0.5986748 0.455765,-0.5986748 0.162222,0 0.27037,0.046349 0.332168,0.1042854 0.03862,0.034762 0.05407,0.073386 0.05021,0.1390474 z"
         style="font-family:Seshat;-inkscape-font-specification:Seshat"
         id="path1158" />
      <path
         d="m 51.422584,9.5793829 c -0.177672,0.046349 -0.312856,0.061799 -0.533014,0.065661 v 0.096561 c 0.193121,0.00772 0.270369,0.027037 0.285819,0.1429095 0.01931,0.1583589 0.02317,0.3476179 0.02317,0.5214269 0,0.231745 -0.0077,0.343755 -0.0309,0.560051 -0.01159,0.0927 -0.104285,0.12746 -0.251057,0.131322 v 0.0927 c 0.127459,-0.01159 0.281956,-0.01159 0.421003,-0.01159 0.139048,0 0.293544,0 0.424867,0.01159 v -0.0927 c -0.150635,-0.0039 -0.243333,-0.03862 -0.25492,-0.131322 -0.01931,-0.169947 -0.0309,-0.370793 -0.0309,-0.521427 0,-0.4828025 0.108147,-0.5832254 0.278094,-0.5832254 0.08497,0 0.158359,0.027037 0.212433,0.077248 h 0.01545 l 0.07339,-0.2780943 v -0.01545 c -0.04249,-0.046349 -0.0927,-0.065661 -0.181534,-0.065661 -0.204708,0 -0.343756,0.1390471 -0.413279,0.3321681 -0.0077,-0.119735 -0.01545,-0.2317452 -0.02704,-0.312856 z"
         style="font-family:Seshat;-inkscape-font-specification:Seshat"
         id="path1160" />
      <path
         d="m 52.979132,9.5793829 c -0.436453,0 -0.776346,0.3283057 -0.776346,0.8342831 0,0.525289 0.278094,0.818833 0.729997,0.818833 0.436454,0 0.776347,-0.328306 0.776347,-0.834283 0,-0.5252892 -0.278094,-0.8188331 -0.729998,-0.8188331 z m -0.02704,1.4908941 c -0.258783,0 -0.417142,-0.293544 -0.417142,-0.691373 0,-0.4364536 0.181534,-0.6372994 0.424866,-0.6372994 0.258783,0 0.417142,0.2935434 0.417142,0.6913734 0,0.436453 -0.181534,0.637299 -0.424866,0.637299 z"
         style="font-family:Seshat;-inkscape-font-specification:Seshat"
         id="path1162" />
      <path
         d="m 54.721082,11.097314 c -0.146772,-0.0039 -0.23947,-0.03862 -0.251057,-0.131322 -0.02318,-0.216296 -0.0309,-0.405554 -0.0309,-1.1394142 0,-0.8188331 0.0077,-1.1085146 0.05407,-1.3866088 l -0.01159,-0.019312 c -0.177671,0.046349 -0.370792,0.061799 -0.629574,0.065661 v 0.09656 c 0.193121,0.00772 0.266506,0.050211 0.278094,0.146772 0.02317,0.1815337 0.0309,0.3939669 0.0309,1.0969273 0,0.7338602 -0.0077,0.9231182 -0.0309,1.1394142 -0.01159,0.0927 -0.104286,0.12746 -0.251058,0.131322 v 0.0927 c 0.12746,-0.01159 0.281957,-0.01159 0.421004,-0.01159 0.139047,0 0.293544,0 0.421004,0.01159 z"
         style="font-family:Seshat;-inkscape-font-specification:Seshat"
         id="path1164" />
      <path
         d="m 55.648062,11.097314 c -0.146772,-0.0039 -0.23947,-0.03862 -0.251057,-0.131322 -0.02318,-0.216296 -0.0309,-0.405554 -0.0309,-1.1394142 0,-0.8188331 0.0077,-1.1085146 0.05407,-1.3866088 l -0.01159,-0.019312 c -0.177671,0.046349 -0.370792,0.061799 -0.629574,0.065661 v 0.09656 c 0.193121,0.00772 0.266507,0.050211 0.278094,0.146772 0.02317,0.1815337 0.0309,0.3939669 0.0309,1.0969273 0,0.7338602 -0.0077,0.9231182 -0.0309,1.1394142 -0.01159,0.0927 -0.104286,0.12746 -0.251058,0.131322 v 0.0927 c 0.12746,-0.01159 0.281957,-0.01159 0.421004,-0.01159 0.139047,0 0.293544,0 0.421004,0.01159 z"
         style="font-family:Seshat;-inkscape-font-specification:Seshat"
         id="path1166" />
      <path
         d="m 57.451804,9.5793829 c -0.436453,0 -0.776346,0.3283057 -0.776346,0.8342831 0,0.525289 0.278094,0.818833 0.729997,0.818833 0.436453,0 0.776346,-0.328306 0.776346,-0.834283 0,-0.5252892 -0.278094,-0.8188331 -0.729997,-0.8188331 z m -0.02704,1.4908941 c -0.258782,0 -0.417141,-0.293544 -0.417141,-0.691373 0,-0.4364536 0.181533,-0.6372994 0.424866,-0.6372994 0.258782,0 0.417141,0.2935434 0.417141,0.6913734 0,0.436453 -0.181534,0.637299 -0.424866,0.637299 z"
         style="font-family:Seshat;-inkscape-font-specification:Seshat"
         id="path1168" />
      <path
         d="m 58.683914,9.6489065 c -0.05021,0.023174 -0.139047,0.054074 -0.204708,0.065661 v 0.084973 h 0.212433 v 0.027037 c 0,0.7338602 -0.0077,0.9231182 -0.0309,1.1394142 -0.01159,0.0927 -0.104286,0.12746 -0.251058,0.131322 v 0.0927 c 0.12746,-0.01159 0.281957,-0.01159 0.421004,-0.01159 0.139047,0 0.293544,0 0.424866,0.01159 v -0.0927 c -0.150634,-0.0039 -0.243332,-0.03862 -0.254919,-0.131322 -0.02318,-0.216296 -0.0309,-0.405554 -0.0309,-1.1394142 v -0.027037 h 0.378517 c 0,-0.042487 0.0077,-0.1081478 0.01545,-0.1506344 h -0.401692 v -0.579363 c 0,-0.3205809 0.07725,-0.4789401 0.281957,-0.4789401 0.0927,0 0.150634,0.019312 0.208571,0.069524 0.04635,0.038624 0.08883,0.100423 0.08111,0.1892586 l 0.115872,-0.00772 c 0.02704,-0.1120102 0.06566,-0.2356076 0.115873,-0.3476178 -0.0927,-0.073386 -0.224021,-0.1081478 -0.370793,-0.1081478 -0.332168,0 -0.710685,0.2896815 -0.710685,0.8226955 z"
         style="font-family:Seshat;-inkscape-font-specification:Seshat"
         id="path1170" />
    </g>
    <g
       aria-label="Many"
       transform="scale(0.96426649,1.0370577)"
       id="text6690"
       style="font-size:15.9001px;line-height:1.25;fill:#eeeeee;stroke:#333333;stroke-width:2.55468;paint-order:stroke fill markers">
      <path
         d="M 47.441808,24.405163 C 46.821704,24.389263 46.376502,24.198462 46.344701,23.816859 46.0903,21.050242 45.947199,17.202418 46.0744,13.895197 h -0.604204 c -2.655317,4.78593 -3.561622,6.264639 -4.80183,8.061351 -1.669511,-3.10052 -3.11642,-5.978438 -3.959125,-8.061351 l -0.556504,0.0318 c -0.1113,3.19592 -0.429302,6.996044 -0.747304,9.762662 -0.0477,0.477003 -0.413403,0.699604 -1.128907,0.715504 v 0.381602 c 0.508803,-0.0477 0.906305,-0.0477 1.383308,-0.0477 0.524704,0 0.985807,0 1.415109,0.0477 v -0.381602 c -0.667804,-0.0159 -0.906305,-0.222601 -0.906305,-0.604204 0.0477,-2.369115 0.190801,-4.245326 0.492903,-6.43954 1.510509,2.655317 2.512215,4.658729 3.434421,6.868843 l 0.461103,-0.0318 c 1.892112,-3.800124 2.591716,-4.944931 4.006825,-6.980144 0.222602,2.067013 0.302102,5.008531 0.222602,6.582641 -0.0159,0.381603 -0.286202,0.588304 -0.890406,0.604204 v 0.381602 c 0.508803,-0.0477 1.081207,-0.0477 1.717211,-0.0477 0.636004,0 1.303808,0 1.828511,0.0477 z"
         style="font-family:Seshat;-inkscape-font-specification:Seshat"
         id="path1210" />
      <path
         d="m 54.183431,23.99176 c -0.190801,0.0954 -0.318002,0.111301 -0.508803,0.111301 -0.270302,0 -0.604204,-0.270302 -0.620104,-0.890405 -0.0159,-0.890406 0,-2.162414 0.0636,-3.13232 0.0795,-1.128907 -0.508803,-1.923912 -2.067013,-1.923912 -0.683704,0 -1.351508,0.190801 -2.019313,0.747305 -0.0159,0.365702 -0.0795,0.906305 -0.1431,1.319708 l 0.477003,-0.0318 c 0.0795,-0.954006 0.779104,-1.240208 1.303808,-1.240208 0.938106,0 1.256108,0.524703 1.208407,1.335608 0,0.286202 -0.0159,0.540604 -0.0159,0.763205 -0.413402,0.143101 -1.049406,0.302102 -1.55821,0.381602 -1.049406,0.174902 -1.892111,0.763205 -1.892111,1.733111 0,0.969906 0.826805,1.796712 1.66951,1.796712 0.810905,0 1.478709,-0.508804 1.844412,-1.033507 0.174901,0.779105 0.524703,1.033507 1.033506,1.033507 0.302102,0 0.556504,-0.0795 0.858605,-0.254402 l 0.349803,-0.206701 0.0795,-0.445203 z m -3.561623,0.143101 c -0.477003,0 -0.842705,-0.397502 -0.842705,-0.890405 0,-0.922206 0.826805,-1.49461 2.067013,-1.52641 -0.0159,0.397503 -0.0159,0.715505 -0.0159,0.969906 0,0.763205 -0.540603,1.446909 -1.208408,1.446909 z"
         style="font-family:Seshat;-inkscape-font-specification:Seshat"
         id="path1212" />
      <path
         d="m 62.356061,24.405163 c -0.604204,-0.0159 -1.001706,-0.159001 -1.017607,-0.540603 -0.0477,-0.890406 -0.0477,-2.210114 -0.0159,-3.593423 0.0318,-1.303808 -0.779105,-2.114713 -2.162413,-2.114713 -1.001706,0 -1.796711,0.667804 -2.067013,1.62181 -0.0318,-0.588304 -0.0795,-1.144807 -0.127201,-1.54231 l -0.0477,-0.0795 c -0.731405,0.190801 -1.287908,0.254401 -2.194214,0.270302 v 0.397502 c 0.795005,0.0318 1.113007,0.111301 1.176607,0.588304 0.0795,0.651904 0.0954,1.431009 0.0954,2.146513 0,0.954006 -0.0318,1.415109 -0.127201,2.305515 -0.0477,0.381602 -0.429303,0.524703 -1.033506,0.540603 v 0.381602 c 0.524703,-0.0477 1.160707,-0.0477 1.733111,-0.0477 0.572403,0 1.208407,0 1.749011,0.0477 v -0.381602 c -0.620104,-0.0159 -1.001707,-0.159001 -1.049407,-0.540603 -0.0795,-0.699605 -0.127201,-1.52641 -0.127201,-2.146514 0,-1.780811 0.842705,-2.591716 1.59001,-2.591716 0.906306,0 1.446909,0.508803 1.431009,1.844412 -0.0159,1.780811 -0.0477,2.989218 -0.159001,3.736523 l 0.0318,0.0636 c 0.238502,-0.0318 0.492903,-0.0318 0.763205,-0.0318 0.572404,0 1.033507,0 1.55821,0.0477 z"
         style="font-family:Seshat;-inkscape-font-specification:Seshat"
         id="path1214" />
      <path
         d="m 67.300966,18.760628 c 0.461102,0.0318 0.667804,0.1272 0.667804,0.333902 0,0.429302 -0.349802,1.240208 -1.54231,3.609322 -0.715504,-1.59001 -1.431009,-3.402621 -1.733111,-4.308927 l -0.0636,-0.0477 c -0.636004,0.0477 -1.462809,0.0795 -2.273715,0.0795 v 0.381602 c 0.620104,0.0636 1.001707,0.381602 1.319709,0.922206 0.620104,1.033506 1.128907,2.289614 1.955712,4.563328 -0.795005,1.57411 -1.733111,2.369115 -3.052819,2.607617 l -0.111301,0.365702 c 0.365702,0.206701 0.683704,0.477003 0.922206,0.763205 1.097107,-0.397503 2.003413,-1.55821 2.893818,-3.450322 l 1.128907,-2.385015 c 0.365703,-0.779105 0.890406,-1.892112 1.335609,-2.718917 0.318002,-0.572403 0.572403,-0.747305 1.192507,-0.779105 v -0.381602 c -0.715504,0.0636 -1.796711,0.0636 -2.639416,0.0636 z"
         style="font-family:Seshat;-inkscape-font-specification:Seshat"
         id="path1216" />
    </g>
    <g
       aria-label="Glances"
       transform="scale(0.96426649,1.0370577)"
       id="text7266"
       style="font-size:15.9001px;line-height:1.25;font-family:Seshat;-inkscape-font-specification:Seshat;fill:#eeeeee;stroke:#333333;stroke-width:2.55468;paint-order:stroke fill markers">
      <path
         d="m 37.925609,34.561743 c -0.222602,0.0477 -0.508803,0.0636 -0.810905,0.0636 -0.636004,0 -1.128907,0 -1.987513,-0.0477 v 0.477003 c 0.954006,0.0159 1.272008,0.318002 1.319709,0.699605 0.0636,0.620104 0.0954,1.240207 0.1113,1.828511 -0.397502,0.286202 -0.969906,0.445203 -1.510509,0.445203 -3.005119,0 -4.73823,-1.892112 -4.73823,-4.865431 0,-2.623516 1.478709,-4.547428 4.070426,-4.547428 1.081206,0 2.162413,0.381602 2.575816,0.874505 0.0795,0.111301 0.127201,0.222602 0.127201,0.381603 0,0.174901 -0.0159,0.286202 -0.0636,0.492903 l 0.604204,0.0477 C 37.766608,29.744013 37.957409,29.20341 38.195911,28.631006 37.528106,28.106303 36.208398,27.7247 34.90459,27.7247 c -3.561622,0 -6.105638,2.448616 -6.105638,5.914837 0,2.989219 2.019312,5.247033 5.437834,5.247033 1.113007,0 1.908012,-0.190801 2.703017,-0.540603 0.333902,-0.143101 0.747304,-0.254402 1.001706,-0.286202 l 0.0477,-0.0636 c -0.0636,-0.461103 -0.0954,-1.081207 -0.0954,-1.415109 0,-0.699605 0.0318,-1.478709 0.1113,-1.955712 z"
         id="path1219" />
      <path
         d="m 42.504816,38.266466 c -0.604204,-0.0159 -0.985806,-0.159001 -1.033506,-0.540603 -0.0954,-0.890406 -0.127201,-1.66951 -0.127201,-4.690529 0,-3.370822 0.0318,-4.563329 0.222601,-5.708136 l -0.0477,-0.0795 c -0.731405,0.190801 -1.52641,0.254402 -2.591716,0.270302 v 0.397502 c 0.795005,0.0318 1.097107,0.206702 1.144807,0.604204 0.0954,0.747305 0.127201,1.62181 0.127201,4.515629 0,3.021019 -0.0318,3.800123 -0.127201,4.690529 -0.0477,0.381602 -0.429303,0.524703 -1.033507,0.540603 v 0.381603 c 0.524704,-0.0477 1.160708,-0.0477 1.733111,-0.0477 0.572404,0 1.208408,0 1.733111,0.0477 z"
         id="path1221" />
      <path
         d="m 49.103354,37.853064 c -0.190802,0.0954 -0.318002,0.111301 -0.508804,0.111301 -0.270301,0 -0.604203,-0.270302 -0.620103,-0.890406 -0.0159,-0.890406 0,-2.162414 0.0636,-3.13232 0.0795,-1.128907 -0.508803,-1.923912 -2.067013,-1.923912 -0.683704,0 -1.351509,0.190801 -2.019313,0.747305 -0.0159,0.365702 -0.0795,0.906306 -0.143101,1.319708 l 0.477003,-0.0318 c 0.0795,-0.954006 0.779105,-1.240208 1.303809,-1.240208 0.938105,0 1.256107,0.524703 1.208407,1.335609 0,0.286201 -0.0159,0.540603 -0.0159,0.763204 -0.413403,0.143101 -1.049407,0.302102 -1.55821,0.381603 -1.049406,0.174901 -1.892112,0.763205 -1.892112,1.733111 0,0.969906 0.826806,1.796711 1.669511,1.796711 0.810905,0 1.478709,-0.508803 1.844411,-1.033507 0.174902,0.779105 0.524704,1.033507 1.033507,1.033507 0.302102,0 0.556503,-0.0795 0.858605,-0.254402 l 0.349803,-0.206701 0.0795,-0.445203 z m -3.561623,0.143101 c -0.477003,0 -0.842705,-0.397503 -0.842705,-0.890406 0,-0.922206 0.826805,-1.494609 2.067013,-1.526409 -0.0159,0.397502 -0.0159,0.715504 -0.0159,0.969906 0,0.763204 -0.540604,1.446909 -1.208408,1.446909 z"
         id="path1223" />
      <path
         d="m 57.275985,38.266466 c -0.604204,-0.0159 -1.001707,-0.159001 -1.017607,-0.540603 -0.0477,-0.890406 -0.0477,-2.210114 -0.0159,-3.593423 0.0318,-1.303808 -0.779105,-2.114713 -2.162413,-2.114713 -1.001707,0 -1.796712,0.667804 -2.067013,1.62181 -0.0318,-0.588303 -0.0795,-1.144807 -0.127201,-1.542309 l -0.0477,-0.0795 c -0.731405,0.190801 -1.287909,0.254402 -2.194214,0.270302 v 0.397502 c 0.795005,0.0318 1.113007,0.111301 1.176607,0.588304 0.0795,0.651904 0.0954,1.431009 0.0954,2.146514 0,0.954006 -0.0318,1.415108 -0.127201,2.305514 -0.0477,0.381602 -0.429303,0.524703 -1.033507,0.540603 v 0.381603 c 0.524704,-0.0477 1.160708,-0.0477 1.733111,-0.0477 0.572404,0 1.208408,0 1.749011,0.0477 v -0.381603 c -0.620104,-0.0159 -1.001706,-0.159001 -1.049406,-0.540603 -0.0795,-0.699604 -0.127201,-1.52641 -0.127201,-2.146513 0,-1.780812 0.842705,-2.591717 1.59001,-2.591717 0.906306,0 1.446909,0.508803 1.431009,1.844412 -0.0159,1.780811 -0.0477,2.989219 -0.159001,3.736523 l 0.0318,0.0636 c 0.238502,-0.0318 0.492903,-0.0318 0.763205,-0.0318 0.572403,0 1.033506,0 1.55821,0.0477 z"
         id="path1225" />
      <path
         d="m 63.174895,33.814438 c 0.0795,-0.397502 0.190801,-0.858605 0.333902,-1.224307 -0.508803,-0.349802 -1.208407,-0.572404 -2.035212,-0.572404 -2.003413,0 -3.529823,1.49461 -3.529823,3.672923 0,1.860312 1.128908,3.13232 3.06872,3.13232 0.747304,0 1.144807,-0.111301 1.62181,-0.365702 l 0.540603,-0.286202 0.174901,-0.683704 -0.0636,-0.0636 c -0.477003,0.333902 -1.081207,0.556504 -1.62181,0.556504 -1.55821,0 -2.416815,-1.065307 -2.416815,-2.766618 0,-1.494609 0.842705,-2.464515 1.876211,-2.464515 0.667805,0 1.113007,0.190801 1.367409,0.429302 0.159001,0.143101 0.222601,0.302102 0.206701,0.572404 z"
         id="path1227" />
      <path
         d="m 69.598527,38.171066 0.174901,-0.683704 -0.0636,-0.0636 c -0.477003,0.333902 -1.081207,0.556504 -1.621811,0.556504 -1.59001,0 -2.337314,-0.969906 -2.416815,-2.528116 0.445203,-0.0159 0.858606,-0.0318 1.431009,-0.0318 0.779105,0 1.303808,0 1.939812,0.0159 0.572404,0.0159 0.969907,-0.206702 0.969907,-0.429303 0,-1.844412 -1.017607,-2.989219 -2.416816,-2.989219 -1.987512,0 -3.22772,1.51051 -3.22772,3.752424 0,1.860311 1.097107,3.052819 3.068719,3.052819 0.747305,0 1.144808,-0.111301 1.621811,-0.365702 z m -3.911425,-3.275421 c 0.0795,-1.240208 0.636004,-2.194214 1.51051,-2.194214 0.922206,0 1.510509,0.938106 1.510509,2.019313 -0.429302,0.143101 -0.985806,0.206701 -1.65361,0.206701 -0.461103,0 -0.922206,-0.0159 -1.367409,-0.0318 z"
         id="path1229" />
      <path
         d="m 75.19533,33.719038 c 0.0318,-0.365702 0.111301,-0.747305 0.222601,-1.097107 -0.318002,-0.349802 -0.938106,-0.604204 -1.60591,-0.604204 -1.478709,0 -2.400915,0.938106 -2.400915,1.987513 0,0.969906 0.572404,1.59001 1.717211,1.939812 0.795005,0.238501 1.081207,0.604204 1.081207,1.160707 0,0.731405 -0.556504,1.144807 -1.208408,1.144807 -0.365702,0 -0.683704,-0.0795 -1.001706,-0.286201 -0.174901,-0.111301 -0.333902,-0.397503 -0.333902,-0.826806 l -0.461103,0.0318 c -0.0318,0.365702 -0.111301,0.779104 -0.222602,1.144807 0.524704,0.333902 1.144808,0.508803 1.733111,0.508803 1.399209,0 2.655317,-0.874506 2.655317,-2.289614 0,-0.779105 -0.397502,-1.287909 -1.701311,-1.717211 -0.810905,-0.270302 -1.160707,-0.588304 -1.160707,-1.256108 0,-0.508803 0.381602,-0.954006 0.985806,-0.954006 0.461103,0 0.763205,0.127201 1.033507,0.397502 0.159001,0.159001 0.206701,0.429303 0.206701,0.715505 z"
         id="path1231" />
    </g>
  </g>
</svg>
